<svg xmlns="http://www.w3.org/2000/svg" width="19.695" height="14.29" viewBox="0 0 19.695 14.29">
  <path id="Path_10" data-name="Path 10" d="M22.464,11.124H7.865l4.468-4.45a.907.907,0,0,0-.16-1.439,1.413,1.413,0,0,0-1.736.133L4.283,11.491a1.194,1.194,0,0,0-.111.153c0,.051,0,.082-.086.133a.826.826,0,0,0,0,.735c0,.051,0,.082.086.133a1.2,1.2,0,0,0,.111.153l6.155,6.124a1.346,1.346,0,0,0,.948.367,1.394,1.394,0,0,0,.788-.235.981.981,0,0,0,.44-.692.909.909,0,0,0-.28-.747l-4.468-4.45h14.6a1.141,1.141,0,0,0,1.231-1.021A1.141,1.141,0,0,0,22.464,11.124Z" transform="translate(-4 -4.999)" fill="#1e364a"/>
</svg>
