<svg xmlns="http://www.w3.org/2000/svg" viewBox="0 0 25.6 24.47"><defs><style>.cls-1{fill:#2e277d;}</style></defs><title>Asset 49</title><g id="Layer_2" data-name="Layer 2"><g id="Layer_1-2" data-name="Layer 1"><path class="cls-1" d="M2.84,10.1H4.91V5.58H9.46a2.64,2.64,0,0,1,1.37.35,1.41,1.41,0,0,1,.75,1.31c0,.55,0,1.1,0,1.64V9H9.14v-.9C9.14,8,9.11,8,9,8H7.83c-.07,0-.1,0-.1.09v2s0,0,0,.08h.18c3,0,6,0,9,0a4.57,4.57,0,0,1,3.39,1.4,3.44,3.44,0,0,1,1,2.91,2.83,2.83,0,0,1-.83,1.82,7.47,7.47,0,0,1-.7.52l-.12.11a.61.61,0,0,0,.14.1,3.65,3.65,0,0,1,1.67,1.26,3.56,3.56,0,0,1,.6,1.56,4,4,0,0,1-3.26,4.55,6.37,6.37,0,0,1-1,.08H0V19.13l0,0a.45.45,0,0,0,.06.12l3.05,3a.31.31,0,0,0,.24.1H13V13H7.73v.13c0,.71,0,1.42,0,2.12,0,.12,0,.16.15.16H9.14v-1h2.43a.43.43,0,0,0,0,.05c0,.69,0,1.37,0,2.05a1.84,1.84,0,0,1-.06.41,1.17,1.17,0,0,1-1.07.93,5.65,5.65,0,0,1-.58,0H5V12.57H2.09a3.59,3.59,0,0,1-.8-.11A1.64,1.64,0,0,1,.05,11a4.21,4.21,0,0,1,0-.62V0H25.6V9.09a.26.26,0,0,1-.09.22c-.25.25-.5.52-.76.77a.23.23,0,0,1-.15.07H20.74l.1-.1L23,7.86a.29.29,0,0,0,.1-.23q0-1.49,0-3a.28.28,0,0,0-.09-.22c-.66-.65-1.3-1.3-1.95-1.95a.31.31,0,0,0-.24-.1H5.13a.32.32,0,0,0-.23.09l-2,2a.33.33,0,0,0-.08.18V10S2.84,10.05,2.84,10.1Zm12.58,8.45v3.69c0,.12,0,.15.15.14h1.76a1.58,1.58,0,0,0,.38,0,2,2,0,0,0,1.62-1.8,1.84,1.84,0,0,0-1.88-2h-2Zm0-2.5H17a2.05,2.05,0,0,0,1.5-.63,1.31,1.31,0,0,0-.11-2,2.06,2.06,0,0,0-1.28-.45c-.52,0-1.05,0-1.57,0h-.1Z"/><path class="cls-1" d="M21.21,24.46l.1-.11L23,22.65a.3.3,0,0,0,.11-.25q0-4.11,0-8.22V14h2.3c.11,0,.14,0,.14.15V24.32a.71.71,0,0,1,0,.14Z"/><path class="cls-1" d="M25.54,12.27a1.22,1.22,0,0,1-1.22,1.22,1.23,1.23,0,0,1-1.22-1.22,1.22,1.22,0,0,1,2.44,0Z"/></g></g></svg>