<svg xmlns="http://www.w3.org/2000/svg" viewBox="0 0 212.42 509.45"><defs><style>.cls-1{opacity:0.2;}.cls-2{fill:#231f20;}.cls-3{fill:#0091c0;}.cls-4{fill:#fff;}.cls-5{fill:#fd9619;}.cls-6{fill:#83c35c;}.cls-7{fill:#f58020;}.cls-8{fill:#ed7f92;}.cls-9{fill:#2d81b6;}.cls-10{fill:#cbbe28;}.cls-11{fill:#99ddf3;}.cls-12{fill:#bb2c4a;}</style></defs><title>elements</title><g id="Layer_2" data-name="Layer 2"><g id="Layer_1-2" data-name="Layer 1"><g id="elements" class="cls-1"><path class="cls-2" d="M123.13,509.45a35.06,35.06,0,0,1-10-68.64V401.12h-1.64V390.51h23.36v10.61h-1.63v39.69a35.06,35.06,0,0,1-10.05,68.64Zm-7-113h1.64v48.08l-1.81.43a30.34,30.34,0,1,0,14.28,0l-1.81-.43V396.4h1.64v-1.17H116.16Z"/><path class="cls-3" d="M95.15,474.4a28,28,0,0,0,56,0Z"/><path class="cls-3" d="M126.63,451.48a3.7,3.7,0,1,0-3.7,3.69A3.7,3.7,0,0,0,126.63,451.48Z"/><path class="cls-3" d="M131.33,458a2.93,2.93,0,1,0-2.93,2.92A2.93,2.93,0,0,0,131.33,458Z"/><path class="cls-3" d="M126.4,402.44a2.93,2.93,0,1,0-2.93,2.93A2.93,2.93,0,0,0,126.4,402.44Z"/><path class="cls-3" d="M126.86,466.38a1.81,1.81,0,1,0-1.81,1.81A1.81,1.81,0,0,0,126.86,466.38Z"/><path class="cls-3" d="M124.39,428.33a1.81,1.81,0,1,0-1.81,1.81A1.81,1.81,0,0,0,124.39,428.33Z"/><path class="cls-4" d="M119,488.71a2.93,2.93,0,1,0,2.93-2.92A2.93,2.93,0,0,0,119,488.71Z"/><path class="cls-4" d="M123.47,480.28a1.81,1.81,0,1,0,1.81-1.81A1.81,1.81,0,0,0,123.47,480.28Z"/><path class="cls-5" d="M121.59,315.25a1.62,1.62,0,0,1-.9-.23c-6.48-3.83-6.71-7.3-5.75-9.53l.06-.15a5.23,5.23,0,0,1-1.1-7.58,9.41,9.41,0,0,1,.65-.83c-2-1.06-2.56-2.43-2.59-3.57-.22-6.43,9.61-7.63,16.11-8.43a32,32,0,0,0,4-.63c.65-.2.82-.37.65-3.42a27.58,27.58,0,0,1,.44-8c.88-4,3.25-6.63,5.76-9.4,3.27-3.6,6.65-7.32,7.25-14.89.65-8.08-1.42-14.72-6-19.2s-11.38-6.46-19.31-5.67c-16.34,1.62-22.85,12.33-23.46,21-.9,13,5.85,18,10.78,21.7l.59.45a26.38,26.38,0,0,1,9.66,15.81,1.68,1.68,0,0,1-1.43,1.88,1.66,1.66,0,0,1-1.87-1.43,23.09,23.09,0,0,0-8.36-13.6l-.58-.44c-4.92-3.66-13.14-9.8-12.11-24.6.7-10,8-22.28,26.46-24.11,8.92-.88,16.72,1.47,22,6.61s7.71,12.75,7,21.85c-.69,8.7-4.63,13-8.1,16.86-2.3,2.54-4.29,4.73-5,7.88a24.94,24.94,0,0,0-.37,7.05c.16,2.84.33,5.78-3,6.8a32.12,32.12,0,0,1-4.6.75c-4.65.56-13.3,1.62-13.19,5,0,.22.53.73,1.9,1.19l.18.06c5.1-3.54,13.27-5.92,16.77-3.62,2.48,1.62,2.29,3.28,2,4.12-1.5,3.77-12.26,4.11-17.38,3.23l-.63-.12a7.81,7.81,0,0,0-1.43,1.54c-.74,1.07-.93,2,.5,3.15,3.89-3,11.29-4,16.41-2.58.84.24,3.42,1,3.7,3,.11.83-.14,2.06-2,3.16-3.16,1.89-11.38,3.17-17.38.64-.47,1.94,2.93,4.2,4.46,5.1a1.67,1.67,0,0,1-.79,3.1Zm-.87-10.72a20.73,20.73,0,0,0,12.68-.85c-.2-.08-.44-.16-.74-.25A19,19,0,0,0,120.72,304.53Zm2-9.22c4.25.16,8.66-.54,10-1.35a3.18,3.18,0,0,0-.4-.3C130.82,292.69,126.51,293.57,122.68,295.31Z"/><path class="cls-5" d="M126,285.77a78.57,78.57,0,0,0-6.45-20.49,46.93,46.93,0,0,0-9.75-13.86c-.84-.81-5-5.16-1.53-4.19,2.36.67,3.7,3,6,3.78,4.36,1.5,6.46-2.73,5.63-6.55-.39-1.83-2.37-6.11-.43-7.7,1.69-1.39,4.14,3.08,4.64,4.06,1,1.91,2,8.8,5.39,5.39,1.26-1.27,2-3,3.38-4.15s2.23,1.17,2.27,2.17a20.94,20.94,0,0,1-1.09,5.8.83.83,0,0,0,1.62.39c.58-2.26,3-10.52-2.09-10.31-1.42.06-2.37,1.13-3.19,2.18-.56.71-1.07,1.46-1.61,2.18-1.27,1.65-1.56.07-2-1.33-.82-2.72-3.38-8.92-7.26-8.17s-2.1,6.81-1.41,9.18c.49,1.69.57,4.14-1,5.3s-4-1-5.07-2a8.6,8.6,0,0,0-4.4-2.09c-3.88-.54-2.17,3.51-.85,5.18,1.92,2.44,4.36,4.39,6.25,6.88a48.85,48.85,0,0,1,4.8,8.06,79.08,79.08,0,0,1,5.37,15.17c.38,1.47,1,4.19,1.13,5.13s1.84,1,1.67-.05Z"/><path class="cls-6" d="M132.05,197.08a2,2,0,0,1-.93-.58c-6-6.56-5-10.54-3.14-12.72l.12-.14c-2.14-3.22-1.63-6.52,1.4-8.91a11.45,11.45,0,0,1,1-.71c-1.87-1.89-2-3.63-1.67-4.91,2-7.32,13.47-5.24,21.06-3.87a41.9,41.9,0,0,0,4.74.7c.81,0,1.06-.15,1.93-3.63a33,33,0,0,1,3.26-8.79c2.39-4.21,6-6.33,9.77-8.57,4.92-2.91,10-5.92,13.33-14.22,3.54-8.86,3.53-17-.05-23.68S172.34,95.82,163.16,94c-18.95-3.87-30,5.91-33.71,15.46-5.54,14.3.3,22.31,4.56,28.16l.52.71c5.29,7.32,6.1,16.67,5.34,21.15a2,2,0,1,1-3.86-.64,27.18,27.18,0,0,0-4.66-18.21l-.51-.7c-4.25-5.83-11.36-15.59-5-31.88,4.25-11,16.8-22.25,38.14-17.89,10.34,2.11,18.3,7.47,22.4,15.08s4.23,17,.24,27c-3.81,9.54-9.74,13.05-15,16.14-3.48,2-6.48,3.83-8.35,7.12a29.09,29.09,0,0,0-2.87,7.81c-.81,3.25-1.64,6.61-5.74,6.6a38.6,38.6,0,0,1-5.43-.76c-5.43-1-15.53-2.81-16.58,1-.07.25.34,1,1.72,2l.18.13c7-2.2,17-2,20.12,1.76,2.22,2.7,1.43,4.5.76,5.33-3,3.72-15.22.35-20.66-2.43-.23-.12-.46-.23-.67-.35a9.18,9.18,0,0,0-2.15,1.23c-1.2.95-1.74,1.95-.53,3.72,5.42-2,14.1-.58,19.35,2.82.87.56,3.52,2.27,3.11,4.68-.17,1-.88,2.28-3.31,2.88-4.21,1-13.9-.39-19.77-5.33-1.2,2,1.84,5.74,3.24,7.29a2,2,0,0,1-2,3.21Zm2.77-12.36c4.9,3.2,11.91,3.93,14.55,3.45-.19-.15-.44-.33-.75-.53A22.28,22.28,0,0,0,134.82,184.72Zm5.41-9.69c4.72,1.67,9.92,2.41,11.74,2a3.3,3.3,0,0,0-.35-.47C150.3,174.92,145.14,174.41,140.23,175Z"/><path class="cls-6" d="M147.32,165.47a92.33,92.33,0,0,0-.12-25.29,55.2,55.2,0,0,0-6.13-19c-.67-1.21-3.86-7.56-.27-5.24,2.43,1.56,3.12,4.64,5.42,6.33,4.38,3.2,8.21-.82,8.61-5.41.2-2.19-.54-7.69,2.19-8.81,2.39-1,3.59,4.91,3.81,6.18.45,2.5-.86,10.59,4.18,7.94,1.86-1,3.27-2.7,5.25-3.49s2.1,2.09,1.8,3.24c-.58,2.18-2.08,4.25-3.25,6.14a1,1,0,0,0,1.69,1c1.44-2.34,7-10.8,1.23-12.32-1.61-.43-3,.45-4.34,1.34-.88.6-1.7,1.27-2.57,1.89-2,1.42-1.78-.47-1.77-2.18,0-3.35-.69-11.21-5.31-11.72S153,113,153,115.92c0,2.08-.81,4.86-3,5.61s-4.11-2.5-5-4a10.11,10.11,0,0,0-4.23-3.89c-4.17-2-3.66,3.19-2.76,5.53,1.32,3.41,3.37,6.45,4.63,9.91a56,56,0,0,1,2.59,10.75,92.79,92.79,0,0,1,.76,18.92c-.09,1.79-.36,5.05-.51,6.17s1.72,1.77,1.89.52Z"/><path class="cls-7" d="M93.25,111.88a2.08,2.08,0,0,1-1.08-.2c-7.9-4-8.43-8.05-7.49-10.75a1.34,1.34,0,0,1,.07-.18c-3.16-2.24-3.87-5.5-1.89-8.82a11.75,11.75,0,0,1,.7-1c-2.43-1.09-3.19-2.66-3.33-4-.76-7.54,10.7-9.72,18.27-11.16a37.3,37.3,0,0,0,4.69-1c.75-.28.93-.51.49-4.07a32.82,32.82,0,0,1-.1-9.38c.72-4.78,3.3-8,6-11.49,3.56-4.49,7.23-9.12,7.35-18.06.13-9.54-2.82-17.18-8.54-22.09S94.56,2.91,85.32,4.45C66.24,7.63,59.43,20.73,59.4,31c0,15.34,8.27,20.72,14.35,24.66l.73.47A31.09,31.09,0,0,1,87.06,73.93a2,2,0,0,1-3.85.78A27.13,27.13,0,0,0,72.34,59.39l-.72-.47C65.56,55,55.42,48.44,55.47,31c0-11.77,7.71-26.79,29.2-30.37,10.41-1.74,19.76.41,26.32,6S121,21,120.89,31.75c-.13,10.28-4.42,15.68-8.2,20.44-2.51,3.16-4.67,5.9-5.24,9.64a29.21,29.21,0,0,0,.13,8.32c.4,3.33.83,6.77-3,8.22a38.39,38.39,0,0,1-5.34,1.24c-5.42,1-15.5,2.94-15.11,6.91,0,.26.68.82,2.32,1.25l.22.06c5.72-4.55,15.13-8,19.41-5.57,3,1.72,3,3.69,2.63,4.7-1.46,4.55-14.08,5.79-20.16,5.15l-.76-.1a9.82,9.82,0,0,0-1.56,1.92c-.78,1.32-.93,2.45.84,3.67,4.34-3.8,13-5.6,19.07-4.31,1,.22,4.1.87,4.59,3.26.19,1,0,2.44-2.06,3.87-3.56,2.47-13.12,4.62-20.37,2.11-.39,2.32,3.77,4.7,5.64,5.65a2,2,0,0,1-.69,3.7ZM91.4,99.36c5.73,1.22,12.54-.61,14.83-2a6.81,6.81,0,0,0-.9-.23A22.24,22.24,0,0,0,91.4,99.36Zm1.59-11c5-.13,10.12-1.3,11.66-2.37-.13-.09-.29-.19-.5-.31C102.34,84.65,97.35,86,93,88.36Z"/><path class="cls-7" d="M96.17,76.9A92.31,92.31,0,0,0,87,53.33,54.85,54.85,0,0,0,74.46,37.82c-1-.9-6.31-5.68-2.12-4.81,2.82.6,4.57,3.22,7.32,4,5.24,1.42,7.37-3.71,6.11-8.13-.61-2.12-3.27-7-1.12-9,1.89-1.77,5.11,3.29,5.77,4.4,1.31,2.17,3,10.19,6.75,5.91,1.39-1.58,2.08-3.69,3.65-5.13s2.71,1.19,2.84,2.37c.24,2.24-.42,4.71-.83,6.9a1,1,0,0,0,1.94.33c.5-2.71,2.66-12.59-3.27-11.95-1.66.18-2.69,1.52-3.58,2.81-.6.87-1.13,1.8-1.72,2.69-1.35,2-1.83.2-2.43-1.41-1.17-3.13-4.66-10.21-9.16-9s-1.93,8.17-.94,10.89c.71,1.95,1,4.83-.78,6.31s-4.74-.85-6.11-1.91a10.15,10.15,0,0,0-5.34-2.11c-4.59-.33-2.27,4.29-.59,6.15,2.45,2.71,5.46,4.81,7.87,7.59A56.15,56.15,0,0,1,85,53.75a93,93,0,0,1,7.5,17.4c.56,1.7,1.47,4.85,1.73,5.94s2.24,1,2-.19Z"/><path class="cls-8" d="M171.91,282.13a1.3,1.3,0,0,1-.61-.41c-3.79-4.54-3.05-7.17-1.75-8.58l.08-.09a4.12,4.12,0,0,1,1.18-5.91,7.68,7.68,0,0,1,.7-.45,3.28,3.28,0,0,1-1-3.32c1.53-4.83,9.14-3.14,14.17-2a24.67,24.67,0,0,0,3.15.59c.54,0,.71-.06,1.38-2.36a21.84,21.84,0,0,1,2.42-5.79c1.7-2.74,4.15-4.06,6.75-5.45,3.36-1.82,6.85-3.69,9.28-9.14,2.61-5.82,2.81-11.29.61-15.82s-6.75-7.77-12.83-9.27c-12.55-3.1-20.19,3.14-22.92,9.42-4.09,9.39-.4,14.9,2.29,18.92l.32.49a20.69,20.69,0,0,1,3,14.26,1.31,1.31,0,1,1-2.56-.53A18.14,18.14,0,0,0,173,244.39l-.32-.48c-2.68-4-7.17-10.72-2.51-21.43,3.13-7.21,11.82-14.4,26-10.92,6.85,1.69,12,5.48,14.55,10.67s2.37,11.49-.56,18c-2.81,6.27-6.86,8.45-10.44,10.37-2.38,1.28-4.43,2.38-5.77,4.53a19.47,19.47,0,0,0-2.12,5.14c-.63,2.15-1.28,4.37-4,4.25a26.31,26.31,0,0,1-3.6-.65c-3.6-.8-10.29-2.29-11.1.25-.05.16.2.68,1.09,1.38l.13.09c4.71-1.28,11.39-.9,13.38,1.72,1.41,1.86.83,3,.36,3.57-2.09,2.41-10.17-.17-13.72-2.17l-.45-.25a6.25,6.25,0,0,0-1.46.76,1.56,1.56,0,0,0-.45,2.47c3.66-1.18,9.42,0,12.84,2.4.56.4,2.29,1.62,1.95,3.21-.14.66-.65,1.5-2.29,1.83-2.84.58-9.27-.63-13.05-4.09-.86,1.32,1.07,3.89,2,5a1.31,1.31,0,0,1-1.41,2.09Zm2.18-8.17a16.36,16.36,0,0,0,9.62,2.69c-.12-.11-.28-.23-.48-.38A14.83,14.83,0,0,0,174.09,274Zm3.88-6.33c3.1,1.24,6.55,1.87,7.78,1.63a2.67,2.67,0,0,0-.22-.33C184.69,267.83,181.26,267.35,178,267.63Z"/><path class="cls-8" d="M183,261.43a61.22,61.22,0,0,0,.6-16.88A36.51,36.51,0,0,0,180,231.71c-.41-.82-2.37-5.15,0-3.51,1.58,1.11,2,3.19,3.45,4.37,2.84,2.26,5.5-.32,5.9-3.37.19-1.47-.16-5.16,1.7-5.83,1.62-.58,2.26,3.37,2.37,4.23.23,1.68-.86,7.05,2.58,5.41,1.27-.6,2.25-1.71,3.6-2.18s1.35,1.45,1.11,2.21a16.46,16.46,0,0,1-2.33,4c-.47.7.63,1.41,1.1.71,1-1.52,5-7,1.15-8.19a3.59,3.59,0,0,0-2.93.77c-.6.38-1.17.81-1.77,1.2-1.37.89-1.18-.36-1.12-1.5.11-2.24-.16-7.51-3.23-8s-3.35,4.5-3.46,6.44c-.08,1.38-.67,3.22-2.15,3.66s-2.68-1.78-3.24-2.79a6.76,6.76,0,0,0-2.72-2.71c-2.73-1.41-2.53,2-2,3.62.79,2.32,2.08,4.4,2.83,6.74a38,38,0,0,1,1.44,7.25,62.19,62.19,0,0,1,0,12.65c-.1,1.2-.37,3.37-.51,4.11s1.11,1.22,1.25.39Z"/><path class="cls-9" d="M152.24,339.45a.94.94,0,0,1-.4-.34c-2.34-3.58-1.58-5.4-.53-6.3l.07-.06a3,3,0,0,1,1.34-4.13,4.49,4.49,0,0,1,.54-.26,2.36,2.36,0,0,1-.42-2.47c1.5-3.33,6.81-1.47,10.32-.24a18.7,18.7,0,0,0,2.2.69c.39.06.52,0,1.19-1.58a16.13,16.13,0,0,1,2.23-3.94c1.45-1.82,3.32-2.55,5.29-3.33,2.57-1,5.22-2.06,7.43-5.76,2.36-4,3-7.85,1.77-11.28s-4.16-6.14-8.39-7.73c-8.73-3.28-14.73.53-17.22,4.8-3.73,6.39-1.56,10.64,0,13.75l.19.38a14.92,14.92,0,0,1,.94,10.47.94.94,0,1,1-1.79-.6,13.09,13.09,0,0,0-.84-9l-.19-.37c-1.58-3.1-4.22-8.29,0-15.56,2.86-4.9,9.69-9.32,19.52-5.62,4.76,1.79,8.14,4.94,9.52,8.88s.72,8.42-1.94,12.87c-2.54,4.25-5.63,5.47-8.35,6.55-1.81.71-3.38,1.33-4.52,2.75a14.43,14.43,0,0,0-2,3.5c-.63,1.49-1.28,3-3.23,2.71a18.53,18.53,0,0,1-2.53-.78c-2.51-.88-7.18-2.51-8-.76-.05.11.08.51.66,1.08l.08.08c3.49-.52,8.25.32,9.44,2.36.86,1.46.35,2.25,0,2.6-1.71,1.54-7.28-1-9.66-2.73a3.15,3.15,0,0,1-.29-.22,4.75,4.75,0,0,0-1.12.43,1.13,1.13,0,0,0-.53,1.73c2.73-.54,6.75.79,9,2.81.37.33,1.5,1.35,1.12,2.47-.15.45-.59,1-1.79,1.11a13,13,0,0,1-9-4c-.72.87.44,2.87,1,3.71a.94.94,0,0,1-.27,1.31A1,1,0,0,1,152.24,339.45Zm2.25-5.67a11.91,11.91,0,0,0,6.67,2.75l-.32-.32A10.67,10.67,0,0,0,154.49,333.78Zm3.32-4.21a13.55,13.55,0,0,0,5.44,1.83l-.14-.25C162.61,330.29,160.19,329.66,157.81,329.57Z"/><path class="cls-9" d="M161.91,325.56a44.73,44.73,0,0,0,1.86-12.05,26.47,26.47,0,0,0-1.48-9.5c-.22-.62-1.26-3.89.27-2.51,1,.93,1.13,2.45,2.1,3.42,1.84,1.86,4,.23,4.51-1.92.26-1,.33-3.7,1.71-4,1.21-.28,1.34,2.61,1.35,3.23,0,1.23-1.22,5,1.38,4.1a28.71,28.71,0,0,1,2.77-1.26c1-.22.84,1.15.61,1.68a12.13,12.13,0,0,1-2,2.68c-.4.46.33,1.06.72.6.87-1,4.16-4.61,1.53-5.77a2.58,2.58,0,0,0-2.17.3c-.47.22-.91.48-1.37.71-1.06.52-.81-.36-.68-1.17.27-1.59.53-5.39-1.63-6s-2.78,2.94-3,4.31c-.17,1-.75,2.25-1.85,2.44s-1.77-1.49-2.08-2.27a5,5,0,0,0-1.72-2.17c-1.84-1.24-2,1.24-1.74,2.43.37,1.72,1.12,3.32,1.46,5.06a27.08,27.08,0,0,1,.41,5.32,45.3,45.3,0,0,1-1.07,9.06c-.18.85-.56,2.38-.72,2.9s.69,1,.87.39Z"/><path class="cls-8" d="M106.45,324.77a.73.73,0,0,1-.39,0c-3.1-.65-3.65-2-3.58-3a.13.13,0,0,0,0-.06,2.19,2.19,0,0,1-1.46-2.87,2.3,2.3,0,0,1,.14-.42,1.75,1.75,0,0,1-1.51-1.07c-1-2.54,2.79-4.34,5.28-5.54a15.85,15.85,0,0,0,1.52-.79c.23-.17.27-.27-.21-1.45a12.37,12.37,0,0,1-.9-3.23,8.51,8.51,0,0,1,1-4.53,9.51,9.51,0,0,0,.88-6.91c-.83-3.31-2.56-5.67-5-6.84s-5.41-1-8.46.35c-6.3,2.85-7.44,8-6.51,11.54,1.4,5.3,4.77,6.39,7.23,7.19l.29.1a11.13,11.13,0,0,1,6,5,.7.7,0,1,1-1.26.62,9.68,9.68,0,0,0-5.16-4.29l-.3-.1c-2.45-.79-6.55-2.12-8.14-8.16-1.07-4.07.19-10,7.28-13.18,3.44-1.56,6.86-1.68,9.64-.33s4.8,4,5.74,7.76a10.9,10.9,0,0,1-1,7.81,7.27,7.27,0,0,0-.92,3.81,10.38,10.38,0,0,0,.8,2.86c.45,1.11.91,2.26-.28,3.12a14.37,14.37,0,0,1-1.72.91c-1.78.86-5.09,2.45-4.58,3.78,0,.09.31.22.91.22H102c1.56-2.1,4.49-4.15,6.19-3.71,1.21.32,1.36,1,1.34,1.38-.08,1.7-4.33,3.29-6.48,3.63l-.27,0a3.6,3.6,0,0,0-.37.81.84.84,0,0,0,.63,1.18,8.87,8.87,0,0,1,6.19-3.24c.37,0,1.49-.08,1.88.71a1.32,1.32,0,0,1-.35,1.52,9.66,9.66,0,0,1-6.84,2.61c.08.83,1.73,1.27,2.47,1.43a.7.7,0,0,1,.1,1.34Zm-1.79-4.16a8.7,8.7,0,0,0,4.93-2.05h-.33A8,8,0,0,0,104.66,320.61Zm-.47-3.94a10.2,10.2,0,0,0,3.81-1.89l-.2-.06C107.08,314.53,105.48,315.47,104.19,316.67Z"/><path class="cls-8" d="M104.24,312.42a33,33,0,0,0-5.34-7.29,19.7,19.7,0,0,0-5.76-4.21c-.44-.21-2.7-1.38-1.17-1.46,1,0,1.87.69,2.89.7,1.94,0,2.2-2,1.36-3.37-.4-.68-1.77-2.12-1.21-3s2.06.67,2.39,1c.66.63,2,3.24,2.88,1.42a19,19,0,0,1,.79-2.11c.41-.65,1,.16,1.19.56a9.2,9.2,0,0,1,.36,2.46.35.35,0,0,0,.69-.07c-.07-1-.24-4.59-2.23-3.82a1.92,1.92,0,0,0-1,1.29c-.13.36-.23.73-.35,1.09-.28.83-.61.24-1-.26-.69-1-2.55-3.1-4-2.28s.08,3,.68,3.85a2.1,2.1,0,0,1,.31,2.25c-.5.7-1.72.14-2.29-.09a3.56,3.56,0,0,0-2-.24c-1.61.31-.39,1.69.37,2.18,1.09.71,2.32,1.15,3.41,1.89a19.94,19.94,0,0,1,3,2.57,33.53,33.53,0,0,1,4.19,5.31c.35.54,1,1.54,1.14,1.9s.87.15.66-.25Z"/><path class="cls-10" d="M34,187.35a1,1,0,0,1-.52.12c-4.3-.21-5.33-1.9-5.45-3.29v-.09a3,3,0,0,1-2.59-3.54c0-.19.06-.39.11-.59a2.38,2.38,0,0,1-2.26-1.11c-1.83-3.2,2.82-6.43,5.89-8.57A18,18,0,0,0,31,168.89c.28-.28.32-.41-.58-1.91a15.86,15.86,0,0,1-1.9-4.14c-.63-2.26-.13-4.22.4-6.29.69-2.69,1.41-5.48-.31-9.47C26.79,142.82,24,140,20.46,139s-7.48-.23-11.27,2.29C1.35,146.44.92,153.6,2.93,158.15c3,6.82,7.77,7.56,11.25,8.1l.42.07a15,15,0,0,1,9.1,5.42.95.95,0,1,1-1.54,1.1,13.19,13.19,0,0,0-7.86-4.64l-.41-.07c-3.47-.54-9.27-1.44-12.7-9.21-2.31-5.23-1.88-13.41,7-19.25,4.27-2.83,8.84-3.73,12.87-2.52s7.3,4.39,9.36,9.18c2,4.59,1.14,7.83.41,10.69-.49,1.9-.91,3.54-.42,5.31a14.19,14.19,0,0,0,1.7,3.67c.84,1.4,1.71,2.84.3,4.24a17,17,0,0,1-2.13,1.6c-2.2,1.53-6.29,4.38-5.33,6.06.06.11.46.23,1.28.1l.1,0c1.64-3.15,5.14-6.54,7.51-6.31,1.69.16,2,1.05,2.1,1.56.25,2.31-5.11,5.36-7.93,6.27l-.35.11a4.63,4.63,0,0,0-.31,1.17c-.09.73.07,1.26,1.09,1.45,1.18-2.54,4.64-5,7.61-5.68.49-.1,2-.43,2.68.54a1.82,1.82,0,0,1-.15,2.12,13,13,0,0,1-8.61,5c.28,1.11,2.6,1.34,3.62,1.39a.94.94,0,0,1,.9,1A1,1,0,0,1,34,187.35Zm-3.3-5.19a11.85,11.85,0,0,0,6.18-3.82l-.44.07A10.89,10.89,0,0,0,30.66,182.16ZM29.19,177a14.15,14.15,0,0,0,4.71-3.36l-.29,0C32.61,173.47,30.66,175.07,29.19,177Z"/><path class="cls-10" d="M28.33,171.25a44.38,44.38,0,0,0-8.73-8.64,26.62,26.62,0,0,0-8.63-4.4c-.64-.19-3.92-1.27-1.89-1.71,1.37-.3,2.67.52,4,.31,2.61-.41,2.54-3.11,1.1-4.82-.68-.82-2.83-2.45-2.27-3.78.48-1.15,2.91.46,3.43.82,1,.7,3.34,3.93,4.16,1.28a27.93,27.93,0,0,1,.6-3c.41-.95,1.44,0,1.73.5a11.93,11.93,0,0,1,1,3.22.48.48,0,0,0,.93-.24c-.32-1.3-1.31-6.11-3.82-4.65a2.6,2.6,0,0,0-1,2c-.1.51-.15,1-.23,1.54-.2,1.17-.77.45-1.36-.15-1.14-1.16-4.09-3.61-5.85-2.19s.76,4,1.74,5c.7.72,1.39,1.94.9,2.95s-2.27.56-3.09.36a4.87,4.87,0,0,0-2.78.12c-2.11.76-.17,2.35,1,2.85,1.63.72,3.37,1,5,1.81a27.88,27.88,0,0,1,4.58,2.79,44.92,44.92,0,0,1,6.76,6.24c.59.64,1.62,1.86,2,2.29s1.2,0,.82-.47Z"/><path class="cls-5" d="M180.67,197.07a.69.69,0,0,1-.29-.27c-1.61-2.72-1-4-.19-4.67l.05,0a2.21,2.21,0,0,1,1.13-3,3.17,3.17,0,0,1,.41-.17,1.75,1.75,0,0,1-.24-1.84c1.22-2.42,5.09-.88,7.65.14a14.86,14.86,0,0,0,1.61.59c.29.06.38,0,.93-1.13a11.73,11.73,0,0,1,1.78-2.85,8.53,8.53,0,0,1,4-2.31,9.49,9.49,0,0,0,5.69-4c1.87-2.85,2.45-5.72,1.67-8.3s-2.9-4.68-6-6c-6.36-2.71-10.92-.07-12.9,3-3,4.61-1.49,7.83-.41,10.18l.13.29a11.13,11.13,0,0,1,.36,7.79.7.7,0,0,1-1.31-.51,9.67,9.67,0,0,0-.33-6.7l-.13-.28c-1.07-2.35-2.87-6.27.51-11.53,2.27-3.54,7.47-6.59,14.63-3.54a11.31,11.31,0,0,1,6.77,6.87c.9,3,.27,6.27-1.84,9.48a10.83,10.83,0,0,1-6.4,4.58,7.36,7.36,0,0,0-3.43,1.9,10.6,10.6,0,0,0-1.56,2.53c-.52,1.08-1.05,2.2-2.48,1.9a13.69,13.69,0,0,1-1.85-.65c-1.83-.73-5.24-2.09-5.88-.82,0,.08.05.38.46.82l.06.06c2.59-.27,6.09.5,6.91,2.05.59,1.1.18,1.68-.11,1.92-1.31,1.09-5.35-1-7.06-2.32l-.21-.17a3.19,3.19,0,0,0-.84.28c-.49.24-.75.55-.45,1.26a8.82,8.82,0,0,1,6.57,2.37c.27.26,1.07,1,.76,1.86a1.34,1.34,0,0,1-1.36.77A9.61,9.61,0,0,1,181,193.3c-.56.63.24,2.14.62,2.79a.69.69,0,0,1-.25,1A.67.67,0,0,1,180.67,197.07Zm1.85-4.13a8.73,8.73,0,0,0,4.85,2.25,2.43,2.43,0,0,0-.23-.24A8,8,0,0,0,182.52,192.94Zm2.59-3a10.15,10.15,0,0,0,4,1.53l-.09-.19C188.64,190.62,186.87,190.07,185.11,189.93Z"/><path class="cls-5" d="M188.27,187.09a33.17,33.17,0,0,0,1.76-8.86,19.46,19.46,0,0,0-.8-7.08c-.14-.48-.81-2.93.28-1.86.74.72.77,1.85,1.45,2.6,1.31,1.44,2.93.3,3.4-1.28.23-.75.36-2.73,1.4-2.93s.9,2,.89,2.44c0,.91-1.06,3.65.9,3.08a19.72,19.72,0,0,1,2.08-.85c.76-.13.59.88.4,1.26a8.74,8.74,0,0,1-1.57,1.92c-.31.33.21.8.52.47.67-.72,3.22-3.28,1.31-4.23a2,2,0,0,0-1.62.16c-.35.15-.69.33-1,.48-.8.36-.59-.29-.46-.89.25-1.17.55-4-1-4.48s-2.15,2.09-2.38,3.11c-.16.72-.62,1.64-1.44,1.74s-1.27-1.16-1.48-1.74a3.65,3.65,0,0,0-1.2-1.67c-1.32-1-1.51.86-1.36,1.74.22,1.29.72,2.5.91,3.8a20.1,20.1,0,0,1,.15,3.95,33.62,33.62,0,0,1-1.09,6.68c-.16.62-.49,1.74-.62,2.12s.48.75.63.32Z"/><path class="cls-9" d="M74.13,285.1a1.2,1.2,0,0,1-.68,0c-5.39-1.13-6.36-3.48-6.22-5.26v-.11a3.84,3.84,0,0,1-2.55-5,5.71,5.71,0,0,1,.26-.72,3.05,3.05,0,0,1-2.64-1.87c-1.66-4.41,4.87-7.55,9.19-9.63a23.11,23.11,0,0,0,2.64-1.38c.41-.29.48-.45-.35-2.52A20.57,20.57,0,0,1,72.22,253c-.33-3,.7-5.36,1.79-7.87,1.42-3.27,2.88-6.64,1.52-12-1.45-5.75-4.44-9.86-8.66-11.9s-9.41-1.8-14.71.61c-10.95,5-12.95,13.92-11.32,20.08,2.42,9.22,8.28,11.12,12.56,12.51l.52.17a19.3,19.3,0,0,1,10.41,8.69,1.22,1.22,0,1,1-2.18,1.09,16.83,16.83,0,0,0-9-7.46l-.51-.17c-4.27-1.39-11.41-3.7-14.17-14.21-1.86-7.08.34-17.33,12.67-22.92,6-2.71,11.93-2.92,16.77-.58s8.35,7,10,13.5c1.56,6.19-.15,10.12-1.65,13.59-1,2.3-1.87,4.29-1.61,6.63a18,18,0,0,0,1.41,5c.78,1.93,1.58,3.93-.49,5.41a22.6,22.6,0,0,1-3,1.6c-3.1,1.48-8.85,4.25-8,6.57.06.15.54.39,1.59.38h.14c2.71-3.65,7.81-7.22,10.77-6.45,2.1.55,2.36,1.74,2.33,2.4-.15,3-7.53,5.73-11.28,6.32l-.47.06a5.73,5.73,0,0,0-.63,1.41c-.26.91-.17,1.62,1.09,2.06,2-3,6.88-5.43,10.76-5.64.65,0,2.6-.13,3.28,1.23a2.33,2.33,0,0,1-.62,2.65c-1.74,2.05-7.14,4.87-11.89,4.53.13,1.46,3,2.22,4.29,2.49a1.22,1.22,0,0,1,.18,2.33ZM71,277.88a15.25,15.25,0,0,0,8.58-3.58c-.15,0-.34,0-.57,0A13.75,13.75,0,0,0,71,277.88ZM70.2,271c3-.88,5.87-2.41,6.63-3.29a2.46,2.46,0,0,0-.35-.11C75.23,267.29,72.45,268.92,70.2,271Z"/><path class="cls-9" d="M70.28,263.62A57.31,57.31,0,0,0,61,250.94a33.84,33.84,0,0,0-10-7.31c-.77-.37-4.7-2.4-2-2.55,1.8-.09,3.27,1.2,5,1.21,3.38,0,3.83-3.4,2.36-5.86-.7-1.18-3.08-3.68-2.11-5.23.85-1.37,3.59,1.16,4.17,1.72,1.14,1.09,3.43,5.64,5,2.47.58-1.18.66-2.55,1.37-3.67s1.82.28,2.09,1a15.81,15.81,0,0,1,.61,4.28.61.61,0,0,0,1.21-.12c-.13-1.7-.41-8-3.88-6.65a3.28,3.28,0,0,0-1.69,2.26c-.23.62-.4,1.26-.61,1.89-.48,1.44-1.06.41-1.68-.45-1.21-1.7-4.44-5.39-7-4s.15,5.21,1.18,6.69c.74,1.06,1.37,2.74.54,3.91s-3,.25-4-.16a6.36,6.36,0,0,0-3.55-.42c-2.81.54-.68,2.95.63,3.79,1.91,1.24,4.05,2,5.94,3.3a34.82,34.82,0,0,1,5.23,4.46,58.2,58.2,0,0,1,7.29,9.25c.6.94,1.66,2.68,2,3.29s1.51.26,1.14-.43Z"/><path class="cls-11" d="M135.4,384.71a.8.8,0,0,1-.41-.18c-2.73-2.28-2.57-3.91-2-4.88l0-.06a2.47,2.47,0,0,1,.06-3.62,3,3,0,0,1,.37-.34,2,2,0,0,1-.94-1.86c.38-3,5.06-2.83,8.15-2.71a18.44,18.44,0,0,0,1.93,0c.32-.05.41-.12.56-1.55a13.06,13.06,0,0,1,.81-3.68,9.54,9.54,0,0,1,3.4-3.94c1.8-1.43,3.65-2.91,4.51-6.4.92-3.71.45-7-1.34-9.4s-4.81-3.88-8.57-4.11c-7.74-.49-11.59,4-12.53,8-1.41,6,1.36,8.85,3.38,10.94l.24.26a12.45,12.45,0,0,1,3.3,8.1.79.79,0,1,1-1.57,0,10.91,10.91,0,0,0-2.87-7l-.23-.24c-2-2.08-5.39-5.57-3.78-12.4,1.08-4.59,5.44-9.77,14.16-9.22,4.23.26,7.69,1.95,9.74,4.75s2.63,6.53,1.6,10.71c-1,4-3.15,5.73-5.06,7.25a8.24,8.24,0,0,0-2.92,3.29,12.13,12.13,0,0,0-.71,3.26c-.14,1.34-.28,2.72-1.91,2.94a14.34,14.34,0,0,1-2.2,0c-2.21-.09-6.33-.25-6.53,1.34,0,.1.19.38.79.7l.08,0c2.65-1.26,6.64-1.75,8.09-.42,1,.95.82,1.71.6,2.08-1,1.64-6,1-8.34.18l-.29-.1a3.3,3.3,0,0,0-.78.61.93.93,0,0,0,0,1.5,10,10,0,0,1,7.85.05c.37.18,1.52.71,1.49,1.69,0,.4-.22.95-1.15,1.32a10.77,10.77,0,0,1-8.15-1c-.37.87,1,2.17,1.69,2.71a.79.79,0,0,1,.1,1.11A.78.78,0,0,1,135.4,384.71Zm.41-5.07a9.84,9.84,0,0,0,6,.57,2.44,2.44,0,0,0-.33-.17A8.92,8.92,0,0,0,135.81,379.64Zm1.61-4.15a11.46,11.46,0,0,0,4.78.13l-.17-.17C141.41,374.89,139.34,375,137.42,375.49Z"/><path class="cls-11" d="M139.7,371.3a36.72,36.72,0,0,0-1.45-10.05,22,22,0,0,0-3.49-7.19c-.33-.45-1.95-2.8-.4-2.07,1,.48,1.5,1.67,2.51,2.21,1.92,1,3.21-.78,3.12-2.63,0-.88-.64-3,.38-3.62s1.7,1.75,1.86,2.24c.31,1,.24,4.26,2.1,2.93.69-.5,1.15-1.26,1.89-1.68s.95.71.9,1.18a10,10,0,0,1-1,2.63.39.39,0,0,0,.72.3c.45-1,2.19-4.68-.19-5a2.12,2.12,0,0,0-1.65.78c-.32.28-.61.6-.92.89-.71.68-.73-.08-.82-.77-.17-1.33-.9-4.41-2.76-4.36s-1.5,3-1.36,4.18a2.33,2.33,0,0,1-.88,2.39c-.85.43-1.77-.76-2.21-1.3a4.08,4.08,0,0,0-1.89-1.31c-1.77-.54-1.28,1.47-.8,2.35.72,1.28,1.7,2.38,2.4,3.68a23.3,23.3,0,0,1,1.62,4.13,36.47,36.47,0,0,1,1.35,7.48c.07.71.14,2,.14,2.48s.79.6.78.1Z"/><path class="cls-10" d="M116.13,388.19a1,1,0,0,1-.53,0c-4.18-.88-4.93-2.71-4.82-4.08v-.09a3,3,0,0,1-2-3.88,4.74,4.74,0,0,1,.2-.56,2.37,2.37,0,0,1-2.05-1.45c-1.29-3.41,3.78-5.85,7.13-7.46a19.24,19.24,0,0,0,2-1.07c.31-.23.37-.36-.28-2a16.24,16.24,0,0,1-1.21-4.36c-.26-2.32.54-4.16,1.39-6.1,1.1-2.53,2.23-5.15,1.18-9.33-1.12-4.46-3.45-7.65-6.72-9.23s-7.3-1.39-11.41.47c-8.49,3.85-10,10.8-8.78,15.58,1.88,7.15,6.43,8.62,9.75,9.7l.4.13a15,15,0,0,1,8.07,6.74,1,1,0,0,1-.43,1.27.94.94,0,0,1-1.26-.43,13.17,13.17,0,0,0-7-5.79l-.4-.12c-3.31-1.08-8.84-2.87-11-11-1.44-5.49.26-13.44,9.83-17.78,4.63-2.1,9.25-2.26,13-.45s6.47,5.45,7.73,10.47c1.21,4.8-.11,7.85-1.28,10.54-.78,1.78-1.45,3.33-1.24,5.14a14,14,0,0,0,1.09,3.86c.6,1.5,1.22,3-.38,4.2a18,18,0,0,1-2.33,1.24c-2.4,1.15-6.86,3.3-6.18,5.1,0,.11.42.3,1.24.29h.11c2.09-2.83,6-5.6,8.35-5,1.63.42,1.83,1.35,1.8,1.86-.11,2.3-5.84,4.44-8.75,4.9l-.36.05a4.71,4.71,0,0,0-.49,1.09c-.2.71-.13,1.25.85,1.6,1.54-2.31,5.33-4.21,8.34-4.37.5,0,2-.11,2.54.95a1.78,1.78,0,0,1-.47,2.05,13,13,0,0,1-9.23,3.52c.11,1.13,2.34,1.72,3.33,1.93a.93.93,0,0,1,.73,1.11A1,1,0,0,1,116.13,388.19Zm-2.42-5.61a11.84,11.84,0,0,0,6.66-2.77h-.45A10.82,10.82,0,0,0,113.71,382.58Zm-.63-5.32a13.61,13.61,0,0,0,5.14-2.55l-.27-.08C117,374.38,114.82,375.64,113.08,377.26Z"/><path class="cls-10" d="M113.14,371.53a44.61,44.61,0,0,0-7.2-9.84A26.62,26.62,0,0,0,98.18,356c-.6-.28-3.65-1.86-1.59-2,1.39-.08,2.53.93,3.91.94,2.61,0,3-2.64,1.83-4.55-.55-.91-2.39-2.85-1.64-4.06.66-1.05,2.79.9,3.24,1.34.88.84,2.66,4.37,3.87,1.91a27.57,27.57,0,0,1,1.06-2.84c.56-.87,1.42.22,1.62.75a12,12,0,0,1,.47,3.32.48.48,0,0,0,1-.09c-.11-1.32-.33-6.2-3-5.16a2.61,2.61,0,0,0-1.32,1.75c-.17.48-.3,1-.47,1.47-.37,1.12-.82.32-1.3-.35-.94-1.32-3.44-4.18-5.39-3.07s.11,4,.92,5.19c.57.82,1,2.12.41,3s-2.31.19-3.08-.13a4.89,4.89,0,0,0-2.75-.32c-2.18.42-.52,2.28.49,2.94,1.48,1,3.14,1.56,4.61,2.56a26.73,26.73,0,0,1,4,3.46,44.47,44.47,0,0,1,5.65,7.17c.48.72,1.29,2.07,1.55,2.55s1.17.21.88-.33Z"/><path class="cls-12" d="M87.76,222.87a1.81,1.81,0,0,1-1,0c-7.61-2.11-8.78-5.56-8.43-8.09l0-.16a5.5,5.5,0,0,1-3.19-7.39,9.55,9.55,0,0,1,.43-1c-2.31-.54-3.25-1.77-3.6-2.91-2-6.46,7.65-10.36,14-12.95A35.21,35.21,0,0,0,90,188.64c.61-.38.73-.61-.28-3.65a29.46,29.46,0,0,1-1.73-8.18c-.2-4.3,1.49-7.6,3.28-11.1,2.32-4.54,4.73-9.23,3.27-17.07-1.55-8.36-5.46-14.52-11.32-17.81s-13.29-3.44-21.1-.47C46,136.47,42.28,149.1,44,158.06c2.63,13.42,10.85,16.67,16.85,19l.72.29a27.71,27.71,0,0,1,14.11,13.39,1.75,1.75,0,0,1-.94,2.29,1.73,1.73,0,0,1-2.28-.93,24.28,24.28,0,0,0-12.18-11.5l-.72-.28c-6-2.37-16-6.34-19-21.62-2-10.3,2.06-24.77,20.22-31.65,8.8-3.33,17.34-3.09,24.06.69s11.3,10.82,13,20.23c1.67,9-1.13,14.47-3.6,19.29-1.64,3.21-3,6-2.89,9.35A26,26,0,0,0,93,183.9c.94,2.83,1.91,5.76-1.19,7.7a31.57,31.57,0,0,1-4.45,2c-4.55,1.85-13,5.29-12,8.68.07.22.74.61,2.25.69h.2c4.2-5,11.83-9.62,16-8.25,3,1,3.22,2.71,3.11,3.65-.48,4.23-11.29,7.51-16.72,8l-.67.06a8.2,8.2,0,0,0-1,1.95c-.46,1.28-.39,2.3,1.37,3.05,3.13-4.07,10.34-7.15,15.92-7.09.92,0,3.73,0,4.57,2,.34.82.43,2.13-1.12,3.74-2.68,2.78-10.66,6.33-17.43,5.4.06,2.1,4.11,3.45,5.92,3.95a1.75,1.75,0,0,1,0,3.36ZM84,212.24c5.22.08,10.85-2.71,12.61-4.33-.22,0-.49,0-.82,0A19.81,19.81,0,0,0,84,212.24Zm-.53-9.88c4.35-1,8.62-2.91,9.78-4.11-.12-.05-.28-.12-.49-.19C91,197.49,86.82,199.56,83.42,202.36Z"/><path class="cls-12" d="M84.2,191.78a82.51,82.51,0,0,0-12.13-19,49.19,49.19,0,0,0-13.66-11.38c-1.08-.59-6.51-3.86-2.7-3.82,2.57,0,4.56,2,7.09,2.19,4.83.32,5.8-4.53,3.92-8.18-.9-1.75-4.08-5.54-2.55-7.68,1.34-1.87,5,2,5.82,2.84,1.52,1.67,4.39,8.39,6.93,4,.93-1.62,1.17-3.59,2.29-5.12s2.58.57,2.89,1.58a22,22,0,0,1,.49,6.17.88.88,0,0,0,1.75,0c0-2.45.13-11.47-5-9.88-1.42.45-2.08,1.8-2.63,3.08-.38.87-.68,1.78-1,2.66-.82,2-1.56.49-2.36-.81-1.58-2.54-5.87-8.11-9.59-6.3s-.26,7.48,1.08,9.69c1,1.58,1.71,4,.41,5.65s-4.29.08-5.66-.6a9,9,0,0,0-5-.92c-4.07.52-1.24,4.15.55,5.49,2.62,1.94,5.62,3.25,8.21,5.25a50.39,50.39,0,0,1,7.07,6.86A82.8,82.8,0,0,1,80,187.4c.78,1.39,2.13,4,2.55,4.89s2.14.51,1.67-.51Z"/><path class="cls-3" d="M120.54,321.36a3.05,3.05,0,1,0-3.05,3.06A3,3,0,0,0,120.54,321.36Z"/><path class="cls-3" d="M126.92,364.54a3.31,3.31,0,1,0-3.31,3.31A3.31,3.31,0,0,0,126.92,364.54Z"/><path class="cls-3" d="M128.69,371.2a1.81,1.81,0,1,0-1.81,1.81A1.81,1.81,0,0,0,128.69,371.2Z"/><path class="cls-3" d="M130.21,335.71a1.81,1.81,0,1,0-1.81,1.81A1.81,1.81,0,0,0,130.21,335.71Z"/></g></g></g></svg>