<svg xmlns="http://www.w3.org/2000/svg" xmlns:xlink="http://www.w3.org/1999/xlink" viewBox="0 0 419.79 347.92"><defs><style>.cls-1{fill:none;}.cls-2{fill:#0095d0;}.cls-3{clip-path:url(#clip-path);}.cls-4{clip-path:url(#clip-path-2);}.cls-5{fill:#0082ff;}.cls-6{clip-path:url(#clip-path-3);}.cls-7{clip-path:url(#clip-path-4);}.cls-8{clip-path:url(#clip-path-5);}.cls-9{clip-path:url(#clip-path-6);}.cls-10{clip-path:url(#clip-path-7);}.cls-11{fill:#140a05;}.cls-12{fill:#fff;}</style><clipPath id="clip-path"><path class="cls-1" d="M217.32,210.82H158.54a10.44,10.44,0,0,1-10.2-9.46q-3.85-22.85-7.73-45.71l-2.71-14.14c0-2.06-.74-4.19-1.15-6.25a10.51,10.51,0,0,1,10.77-13.56h6.33a52.73,52.73,0,0,1,10.36-21h0a15.38,15.38,0,0,1,6.17-5c5.67-2.47,11.51-4.85,17.18-7.07L194.22,86h.66v.74a12,12,0,0,0,.41,3.79,87.9,87.9,0,0,0,2.55,15.37l1.15-1.4a21.55,21.55,0,0,1,3.7-4.11,18.51,18.51,0,0,1,4.6-2.3l1.73-.66-.74-1.07c-.91-1.39-2-3-2.88-4.52s-2.63-4.93-4-7.32l-1.64-3h0a1.84,1.84,0,0,1,0-.74,32.93,32.93,0,0,0-4.61-12.33,66.35,66.35,0,0,1-3.12-6.33,45.85,45.85,0,0,1-2.22-7.24,6,6,0,0,1,0-4.6v-.58h0c1.65-1.39.74-5.59,0-8.71V39.15A23.24,23.24,0,0,1,194,22.71a27.6,27.6,0,0,1,2.88-3h0l2.79-2.39,1.07-.66,1.48-1.15a12.25,12.25,0,0,1,3.46-2.22,22.35,22.35,0,0,1,7.56-1.31,2.56,2.56,0,0,0,1.23,0l.41.41v-.49h0a33.35,33.35,0,0,1,6.42-1.9h0a13.88,13.88,0,0,0,8.22,4.53,24.66,24.66,0,0,1,12.66,7.72,23,23,0,0,1,4.36,17.85,34,34,0,0,1-.82,4.11,3.63,3.63,0,0,1-.5,2.22h0a2.9,2.9,0,0,0,0,1.31,16.85,16.85,0,0,1-2.46,14.64L242,63.73a75.78,75.78,0,0,1-4,6.75l-2,3.12a2.4,2.4,0,0,0-.41,1A34.06,34.06,0,0,1,228.42,91l-2.3,3.45L225,96.21h0a12.16,12.16,0,0,1,10,6.25l1.56,1.89A65.51,65.51,0,0,0,238.86,92a34.7,34.7,0,0,1,.91-6.42V85h2l5.59,2.38c3.86,1.65,8.22,3.37,11.84,4.85a23.6,23.6,0,0,1,13.07,10.2l1.48,2.38a44.2,44.2,0,0,1,6.91,15.71,21,21,0,0,0,4.19,0,21.86,21.86,0,0,1,4.28,0l-.58-.5,1.23.58a8.24,8.24,0,0,1,3.46,1.72,8.88,8.88,0,0,1,4.93,8.88L294,154.91l-3.54,20.23c-1.31,8.22-2.79,16.44-4.11,24.66a10.19,10.19,0,0,1-9.95,9.29H217.32Zm56.89-1.65h1.07a9,9,0,0,0,9.38-8.22q4.44-25.65,8.88-51.22l1.64-9.21h0V138.8c1-5,1.81-9.7-2.71-13.57l-2.39-.66a32,32,0,0,0-5.59-.74H146a8.45,8.45,0,0,0-7.65,10c3.13,17.84,6.25,36.1,9.29,53.69l1.15,6.58a30.58,30.58,0,0,0,.74,4.6l.5,3a9.28,9.28,0,0,0,10.19,7.4Zm-74-86.49h79a42.53,42.53,0,0,0-6.82-15.7l-1.48-2.47a22.59,22.59,0,0,0-12.42-9.7c-4-1.48-8.22-3.2-11.92-4.85L241,87.58h-.25a45.48,45.48,0,0,1-.82,5.75,62.44,62.44,0,0,1-2.63,13.48v.91l-.66-.74c-.82-.9-1.56-1.81-2.22-2.63-2.71-3.45-5.1-6.33-10.19-5.76H223l1.4-2.13,1.07-1.65,2.3-3.53a32.87,32.87,0,0,0,7-16,3.38,3.38,0,0,1,.58-1.48l2-3.12a73.48,73.48,0,0,0,3.86-6.58l.74-1.48a15.78,15.78,0,0,0,2.39-13.65,3.48,3.48,0,0,1,0-2h0a3.69,3.69,0,0,1,.49-2.22,31.07,31.07,0,0,0,.74-3.94,21.87,21.87,0,0,0-4.11-17,23.57,23.57,0,0,0-12.09-7.4,15.19,15.19,0,0,1-8.22-4.69,31.32,31.32,0,0,0-5.75,1.07h-.66a3.5,3.5,0,0,1-1.73.49,21.3,21.3,0,0,0-7.15,1.24,10.82,10.82,0,0,0-3.12,2l-1.57,1.23-1.48.42-1.89,1.31A27.32,27.32,0,0,0,195,22.38a22.14,22.14,0,0,0-3.62,15.87v1.64c.74,3.54,1.65,8.22,0,9.78v.58a7.43,7.43,0,0,0,0,3.7A44.65,44.65,0,0,0,193.56,61a63.2,63.2,0,0,0,3,6.25A34,34,0,0,1,201.37,80h0L203,83.14c1.23,2.38,2.54,4.85,3.86,7.31a25.12,25.12,0,0,0,2.88,4.44l1.07,1.65v.57h-.58l-2.38,1a17.5,17.5,0,0,0-4.36,2.14A20.93,20.93,0,0,0,200,104.1l-1.81,2.3-.65.83v-1a84.88,84.88,0,0,1-2.88-16.44v-3l-5.92,2.39c-5.67,2.22-11.51,4.6-17.1,7.07a14.13,14.13,0,0,0-5.67,4.6h0a50.93,50.93,0,0,0-10.28,21h45.71Z"/></clipPath><clipPath id="clip-path-2"><rect class="cls-1" x="279.86" y="173.96" width="139.93" height="173.96"/></clipPath><clipPath id="clip-path-3"><rect class="cls-1" x="279.86" width="139.93" height="173.96"/></clipPath><clipPath id="clip-path-4"><rect class="cls-1" x="139.93" y="173.96" width="139.93" height="173.96"/></clipPath><clipPath id="clip-path-5"><rect class="cls-1" x="139.93" width="139.93" height="173.96"/></clipPath><clipPath id="clip-path-6"><rect class="cls-1" y="173.96" width="139.93" height="173.96"/></clipPath><clipPath id="clip-path-7"><rect class="cls-1" width="139.93" height="173.96"/></clipPath></defs><title>Asset 2</title><g id="Layer_2" data-name="Layer 2"><g id="Layer_1-2" data-name="Layer 1"><path class="cls-2" d="M292.88,124.41h0c-3.87-3.37-8.22-1.23-12.83-2.14a50.59,50.59,0,0,0-8.22-18.33,23.2,23.2,0,0,0-12.74-10c-5.92-2.14-11.68-4.85-17.52-7.24a5.53,5.53,0,0,0-1.15,0,117,117,0,0,1-3.53,19.74c-3.78-4.11-6.09-9.38-12.91-8.23l1.81-2.79a43.43,43.43,0,0,0,9.37-19.73,2.93,2.93,0,0,1,.5-1.24c2-3.28,4.19-6.41,5.91-9.78a18.31,18.31,0,0,0,3.21-15.54,3.7,3.7,0,0,1,0-1.81c0-2,1.07-4.19,1.23-6.25a22.5,22.5,0,0,0-4.19-17.43,24.12,24.12,0,0,0-12.33-7.56,14.35,14.35,0,0,1-8.22-4.77,32.27,32.27,0,0,0-6.17,1.07h-.66a3.08,3.08,0,0,1-1.48.41,21.7,21.7,0,0,0-7.4,1.24,21.92,21.92,0,0,0-4.76,3.28l-1.16.33-2,1.4a27.85,27.85,0,0,0-2.79,3,22.56,22.56,0,0,0-4,16.44c.66,3.54,2.3,9.13,0,11v.66a6,6,0,0,0,0,4.19A45.55,45.55,0,0,0,193,61.51a69.56,69.56,0,0,1,7.73,18.83,2.3,2.3,0,0,0,0,.74c1.81,3.45,3.62,7,5.51,10.36s2.8,4.36,3.95,6.17a34.3,34.3,0,0,0-6.83,3.2,43.56,43.56,0,0,0-5.42,6.25,108.21,108.21,0,0,1-3.29-20.31c-8.22,3.29-16,6.25-23.76,9.71a14.85,14.85,0,0,0-5.92,4.85,51.83,51.83,0,0,0-10.52,21.45h-6.75A10,10,0,0,0,137.06,132a9.8,9.8,0,0,0,.43,3.69c.49,2.3.82,4.52,1.23,6.83q5,29.43,10,58.95a9.88,9.88,0,0,0,9.79,8.71H276.35a9.55,9.55,0,0,0,9.46-8.8c1.31-8.22,2.71-16.44,4.11-24.66q3.82-22,7.64-43.9A8.21,8.21,0,0,0,292.88,124.41Zm2.79,16q-5.58,30.18-10.52,60.43a9.54,9.54,0,0,1-9.87,8.88H160.18a9.86,9.86,0,0,1-10.77-8.22c0-2.55-.74-5.1-1.15-7.65q-5.17-30.09-10.44-60.18a9,9,0,0,1,7-10.54A11.53,11.53,0,0,1,146,123H284.57a60.13,60.13,0,0,1,8.23,1.15c5.5,4.77,3.86,10.61,2.87,16.2Z"/><g class="cls-3"><g class="cls-4"><rect class="cls-1" x="279.86" y="173.96" width="139.93" height="173.96"/><path class="cls-5" d="M419.72,280.34c-2.18,12.76-4.44,25.51-6.63,38.26-1.23,7.18-2.45,14.36-3.57,21.56-.72,4.61-3.53,7.34-8.23,7.69-.85.06-1.71.06-2.56.06H301c-.85,0-1.71,0-2.56-.06-4.75-.33-7.65-3.14-8.43-7.81q-4.31-25.69-8.74-51.35c-.34-2-.67-4-1.08-5.95-1.33-6.4,2.31-11,8.9-11.25,1.93-.06,3.87,0,5.9,0,1.13-7.26,5.18-13,9.15-18.71a12.91,12.91,0,0,1,5.16-4.21c6.78-3,13.72-5.64,20.73-8.47.67,5.69,1,11.58,2.88,17.68,1.82-2.15,3-4.13,4.74-5.45s3.75-1.8,5.94-2.79c-1-1.54-2.34-3.39-3.46-5.36-1.68-3-3.21-6-4.8-9a1.83,1.83,0,0,1-.3-.63c-.59-6.15-4.55-10.91-6.75-16.4a38.85,38.85,0,0,1-1.88-6.23c-.26-1.18-.51-2.82.09-3.64a6.26,6.26,0,0,0,.34-.55c2-1.66.51-6.54-.06-9.63-.26-5,.11-9.8,3.51-14.11a24.51,24.51,0,0,1,2.43-2.56,20.94,20.94,0,0,0,1.75-1.21,7.65,7.65,0,0,0,1-.58c1.45-1,2.45-2.28,4.14-2.92a19,19,0,0,1,6.43-1.1,2.67,2.67,0,0,0,1.32-.39l.19-.11c.06,0,.13-.06.19-.11h.05l.24,0a27.63,27.63,0,0,1,5.34-1c1.77,2.41,4.39,3.34,7.16,4.16a21,21,0,0,1,10.75,6.6c3.64,4.46,4.24,9.72,3.69,15.24-.18,1.84-.75,3.63-1.1,5.45a3.13,3.13,0,0,0-.09,1.55c2,5.13-.65,9.34-2.76,13.57-1.48,3-3.41,5.7-5.13,8.55a2.63,2.63,0,0,0-.43,1.07c-.48,6.81-4.78,11.81-8.19,17.24-.44.7-.91,1.39-1.61,2.45,5.92-.71,7.93,3.89,11.25,7.49,2-5.77,2.07-11.49,3-17.17a4.29,4.29,0,0,1,1,.18c5.08,2.11,10.08,4.43,15.24,6.32,4.7,1.73,8.5,4.3,11.1,8.69,3,5.06,6.41,9.92,7.28,16,3.72.8,7.87-1,11.2,1.9l-.07-.07C418.31,274.42,420.19,277.59,419.72,280.34Zm-4-7.13a51.11,51.11,0,0,0-7.29-1q-59.13-.1-118.26,0h-2.56a7.81,7.81,0,0,0-7.23,8.35,7.9,7.9,0,0,0,.13,1q4.61,26.18,9.1,52.44c.38,2.21.67,4.44,1,6.66.66,4.22,4.27,6.89,9.41,6.89h100.3c5-.21,7.77-2.79,8.62-7.72q4.53-26.35,9.15-52.68c.87-4.95,2.46-10-2.36-13.9Z"/></g><g class="cls-6"><rect class="cls-1" x="279.86" width="139.93" height="173.96"/><path class="cls-5" d="M419.72,106.38c-2.18,12.76-4.44,25.51-6.63,38.26-1.23,7.18-2.45,14.36-3.57,21.56-.72,4.61-3.53,7.34-8.23,7.69-.85.06-1.71.06-2.56.06H301c-.85,0-1.71,0-2.56-.06-4.75-.33-7.65-3.14-8.43-7.81q-4.31-25.7-8.74-51.35c-.34-2-.67-4-1.08-6-1.33-6.4,2.31-11,8.9-11.25,1.93-.06,3.87,0,5.9,0,1.13-7.26,5.18-13,9.15-18.71a12.91,12.91,0,0,1,5.16-4.21C316,71.61,323,69,330,66.14c.67,5.69,1,11.58,2.88,17.68,1.82-2.15,3-4.13,4.74-5.45s3.75-1.8,5.94-2.79c-1-1.54-2.34-3.39-3.46-5.36-1.68-3-3.21-6-4.8-9a1.83,1.83,0,0,1-.3-.63c-.59-6.15-4.55-10.91-6.75-16.4A38.85,38.85,0,0,1,326.35,38c-.26-1.18-.51-2.82.09-3.64a6.26,6.26,0,0,0,.34-.55c2-1.66.51-6.54-.06-9.63-.26-5,.11-9.8,3.51-14.11a24.51,24.51,0,0,1,2.43-2.56,20.94,20.94,0,0,0,1.75-1.21,7.65,7.65,0,0,0,1-.58c1.45-1,2.45-2.28,4.14-2.92A19,19,0,0,1,346,1.66a2.67,2.67,0,0,0,1.32-.39l.19-.11c.06,0,.13-.06.19-.11h.05L348,1a27.63,27.63,0,0,1,5.34-1c1.77,2.41,4.39,3.34,7.16,4.16a21,21,0,0,1,10.75,6.6c3.64,4.46,4.24,9.72,3.69,15.24-.18,1.84-.75,3.63-1.1,5.45a3.13,3.13,0,0,0-.09,1.55c2,5.13-.65,9.34-2.76,13.57-1.48,3-3.41,5.7-5.13,8.55a2.63,2.63,0,0,0-.43,1.07c-.48,6.81-4.78,11.81-8.19,17.24-.44.7-.91,1.39-1.61,2.45,5.92-.71,7.93,3.89,11.25,7.49,2-5.77,2.07-11.49,3-17.17a4.29,4.29,0,0,1,1,.18c5.08,2.11,10.08,4.43,15.24,6.32,4.7,1.73,8.5,4.3,11.1,8.69,3,5.06,6.41,9.92,7.28,16,3.72.8,7.87-1,11.2,1.9l-.07-.07C418.31,100.46,420.19,103.63,419.72,106.38Zm-4-7.13a51.11,51.11,0,0,0-7.29-1q-59.13-.1-118.26,0h-2.56a7.81,7.81,0,0,0-7.23,8.35,7.9,7.9,0,0,0,.13,1q4.61,26.18,9.1,52.44c.38,2.21.67,4.44,1,6.66.66,4.22,4.27,6.89,9.41,6.89h100.3c5-.21,7.77-2.79,8.62-7.72q4.53-26.36,9.15-52.68c.87-5,2.46-10-2.36-13.9Z"/></g><g class="cls-7"><rect class="cls-1" x="139.93" y="173.96" width="139.93" height="173.96"/><path class="cls-5" d="M279.79,280.34c-2.18,12.76-4.44,25.51-6.63,38.26-1.23,7.18-2.45,14.36-3.57,21.56-.72,4.61-3.53,7.34-8.23,7.69-.85.06-1.71.06-2.56.06H161c-.85,0-1.71,0-2.56-.06-4.75-.33-7.65-3.14-8.43-7.81q-4.31-25.69-8.74-51.35c-.34-2-.67-4-1.08-5.95-1.33-6.4,2.31-11,8.9-11.25,1.93-.06,3.87,0,5.9,0,1.13-7.26,5.18-13,9.15-18.71a12.91,12.91,0,0,1,5.16-4.21c6.78-3,13.72-5.64,20.73-8.47.67,5.69,1,11.58,2.88,17.68,1.82-2.15,3-4.13,4.74-5.45s3.75-1.8,5.94-2.79c-1-1.54-2.34-3.39-3.46-5.36-1.68-3-3.21-6-4.8-9a1.83,1.83,0,0,1-.3-.63c-.59-6.15-4.55-10.91-6.75-16.4a38.85,38.85,0,0,1-1.88-6.23c-.26-1.18-.51-2.82.09-3.64a6.26,6.26,0,0,0,.34-.55c2-1.66.51-6.54-.06-9.63-.26-5,.11-9.8,3.51-14.11a24.51,24.51,0,0,1,2.43-2.56,20.94,20.94,0,0,0,1.75-1.21,7.65,7.65,0,0,0,1-.58c1.45-1,2.45-2.28,4.14-2.92a19,19,0,0,1,6.43-1.1,2.67,2.67,0,0,0,1.32-.39l.19-.11c.06,0,.13-.06.19-.11h.05l.24,0a27.63,27.63,0,0,1,5.34-1c1.77,2.41,4.39,3.34,7.16,4.16a21,21,0,0,1,10.75,6.6c3.64,4.46,4.24,9.72,3.69,15.24-.18,1.84-.75,3.63-1.1,5.45a3.13,3.13,0,0,0-.09,1.55c2,5.13-.65,9.34-2.76,13.57-1.48,3-3.41,5.7-5.13,8.55a2.63,2.63,0,0,0-.43,1.07c-.48,6.81-4.78,11.81-8.19,17.24-.44.7-.91,1.39-1.61,2.45,5.92-.71,7.93,3.89,11.25,7.49,2-5.77,2.07-11.49,3-17.17a4.29,4.29,0,0,1,1,.18c5.08,2.11,10.08,4.43,15.24,6.32,4.7,1.73,8.5,4.3,11.1,8.69,3,5.06,6.41,9.92,7.28,16,3.72.8,7.87-1,11.2,1.9l-.07-.07C278.38,274.42,280.26,277.59,279.79,280.34Zm-4-7.13a51.11,51.11,0,0,0-7.29-1q-59.13-.1-118.26,0h-2.56a7.81,7.81,0,0,0-7.23,8.35,7.9,7.9,0,0,0,.13,1q4.6,26.18,9.1,52.44c.38,2.21.67,4.44,1,6.66.66,4.22,4.27,6.89,9.41,6.89h100.3c5-.21,7.77-2.79,8.62-7.72q4.53-26.35,9.15-52.68c.87-4.95,2.46-10-2.36-13.9Z"/></g><g class="cls-8"><rect class="cls-1" x="139.93" width="139.93" height="173.96"/><path class="cls-5" d="M279.79,106.38c-2.18,12.76-4.44,25.51-6.63,38.26-1.23,7.18-2.45,14.36-3.57,21.56-.72,4.61-3.53,7.34-8.23,7.69-.85.06-1.71.06-2.56.06H161c-.85,0-1.71,0-2.56-.06-4.75-.33-7.65-3.14-8.43-7.81q-4.31-25.7-8.74-51.35c-.34-2-.67-4-1.08-6-1.33-6.4,2.31-11,8.9-11.25,1.93-.06,3.87,0,5.9,0,1.13-7.26,5.18-13,9.15-18.71a12.91,12.91,0,0,1,5.16-4.21c6.78-3,13.72-5.64,20.73-8.47.67,5.69,1,11.58,2.88,17.68,1.82-2.15,3-4.13,4.74-5.45s3.75-1.8,5.94-2.79c-1-1.54-2.34-3.39-3.46-5.36-1.68-3-3.21-6-4.8-9a1.83,1.83,0,0,1-.3-.63c-.59-6.15-4.55-10.91-6.75-16.4A38.85,38.85,0,0,1,186.42,38c-.26-1.18-.51-2.82.09-3.64a6.26,6.26,0,0,0,.34-.55c2-1.66.51-6.54-.06-9.63-.26-5,.11-9.8,3.51-14.11a24.51,24.51,0,0,1,2.43-2.56,20.94,20.94,0,0,0,1.75-1.21,7.65,7.65,0,0,0,1-.58c1.45-1,2.45-2.28,4.14-2.92a19,19,0,0,1,6.43-1.1,2.67,2.67,0,0,0,1.32-.39l.19-.11c.06,0,.13-.06.19-.11h.05L208,1a27.63,27.63,0,0,1,5.34-1c1.77,2.41,4.39,3.34,7.16,4.16a21,21,0,0,1,10.75,6.6c3.64,4.46,4.24,9.72,3.69,15.24-.18,1.84-.75,3.63-1.1,5.45a3.13,3.13,0,0,0-.09,1.55c2,5.13-.65,9.34-2.76,13.57-1.48,3-3.41,5.7-5.13,8.55a2.63,2.63,0,0,0-.43,1.07C225,63,220.69,68,217.28,73.43c-.44.7-.91,1.39-1.61,2.45,5.92-.71,7.93,3.89,11.25,7.49,2-5.77,2.07-11.49,3-17.17a4.29,4.29,0,0,1,1,.18C236,68.49,241,70.81,246.17,72.7c4.7,1.73,8.5,4.3,11.1,8.69,3,5.06,6.41,9.92,7.28,16,3.72.8,7.87-1,11.2,1.9l-.07-.07C278.38,100.46,280.26,103.63,279.79,106.38Zm-4-7.13a51.11,51.11,0,0,0-7.29-1q-59.13-.1-118.26,0h-2.56a7.81,7.81,0,0,0-7.23,8.35,7.9,7.9,0,0,0,.13,1q4.6,26.18,9.1,52.44c.38,2.21.67,4.44,1,6.66.66,4.22,4.27,6.89,9.41,6.89h100.3c5-.21,7.77-2.79,8.62-7.72q4.53-26.36,9.15-52.68c.87-5,2.46-10-2.36-13.9Z"/></g><g class="cls-9"><rect class="cls-1" y="173.96" width="139.93" height="173.96"/><path class="cls-5" d="M139.86,280.34c-2.18,12.76-4.44,25.51-6.63,38.26-1.23,7.18-2.45,14.36-3.57,21.56-.72,4.61-3.53,7.34-8.23,7.69-.85.06-1.71.06-2.56.06H21.09c-.85,0-1.71,0-2.56-.06-4.75-.33-7.65-3.14-8.43-7.81q-4.3-25.69-8.74-51.35c-.34-2-.67-4-1.08-5.95-1.33-6.4,2.31-11,8.9-11.25,1.93-.06,3.87,0,5.9,0,1.13-7.26,5.18-13,9.15-18.71a12.91,12.91,0,0,1,5.16-4.21c6.78-3,13.72-5.64,20.73-8.47.67,5.69,1,11.58,2.88,17.68,1.82-2.15,3-4.13,4.74-5.45s3.75-1.8,5.94-2.79c-1-1.54-2.34-3.39-3.46-5.36-1.68-3-3.21-6-4.8-9a1.83,1.83,0,0,1-.3-.63c-.59-6.15-4.55-10.91-6.75-16.4a38.85,38.85,0,0,1-1.88-6.23c-.26-1.18-.51-2.82.09-3.64a6.26,6.26,0,0,0,.34-.55c2-1.66.51-6.54-.06-9.63-.26-5,.11-9.8,3.51-14.11a24.51,24.51,0,0,1,2.43-2.56,20.94,20.94,0,0,0,1.75-1.21,7.65,7.65,0,0,0,1-.58c1.45-1,2.45-2.28,4.14-2.92a19,19,0,0,1,6.43-1.1,2.67,2.67,0,0,0,1.32-.39l.19-.11c.06,0,.13-.06.19-.11h.05l.24,0a27.63,27.63,0,0,1,5.34-1c1.77,2.41,4.39,3.34,7.16,4.16a21,21,0,0,1,10.75,6.6c3.64,4.46,4.24,9.72,3.69,15.24-.18,1.84-.75,3.63-1.1,5.45a3.13,3.13,0,0,0-.09,1.55c2,5.13-.65,9.34-2.76,13.57-1.48,3-3.41,5.7-5.13,8.55a2.63,2.63,0,0,0-.43,1.07c-.48,6.81-4.78,11.81-8.19,17.24-.44.7-.91,1.39-1.61,2.45,5.92-.71,7.93,3.89,11.25,7.49,2-5.77,2.07-11.49,3-17.17a4.29,4.29,0,0,1,1,.18c5.08,2.11,10.08,4.43,15.24,6.32,4.7,1.73,8.5,4.3,11.1,8.69,3,5.06,6.41,9.92,7.28,16,3.72.8,7.87-1,11.2,1.9l-.07-.07C138.45,274.42,140.33,277.59,139.86,280.34Zm-4-7.13a51.11,51.11,0,0,0-7.29-1q-59.13-.1-118.26,0H7.75a7.81,7.81,0,0,0-7.23,8.35,7.9,7.9,0,0,0,.13,1Q5.26,307.7,9.75,334c.38,2.21.67,4.44,1,6.66.66,4.22,4.27,6.89,9.41,6.89h100.3c5-.21,7.77-2.79,8.62-7.72q4.53-26.35,9.15-52.68c.87-4.95,2.46-10-2.36-13.9Z"/></g><g class="cls-10"><rect class="cls-1" width="139.93" height="173.96"/><path class="cls-5" d="M139.86,106.38c-2.18,12.76-4.44,25.51-6.63,38.26-1.23,7.18-2.45,14.36-3.57,21.56-.72,4.61-3.53,7.34-8.23,7.69-.85.06-1.71.06-2.56.06H21.09c-.85,0-1.71,0-2.56-.06-4.75-.33-7.65-3.14-8.43-7.81q-4.3-25.7-8.74-51.35c-.34-2-.67-4-1.08-6-1.33-6.4,2.31-11,8.9-11.25,1.93-.06,3.87,0,5.9,0,1.13-7.26,5.18-13,9.15-18.71a12.91,12.91,0,0,1,5.16-4.21c6.78-3,13.72-5.64,20.73-8.47.67,5.69,1,11.58,2.88,17.68,1.82-2.15,3-4.13,4.74-5.45s3.75-1.8,5.94-2.79c-1-1.54-2.34-3.39-3.46-5.36-1.68-3-3.21-6-4.8-9a1.83,1.83,0,0,1-.3-.63c-.59-6.15-4.55-10.91-6.75-16.4A38.85,38.85,0,0,1,46.49,38c-.26-1.18-.51-2.82.09-3.64a6.26,6.26,0,0,0,.34-.55c2-1.66.51-6.54-.06-9.63-.26-5,.11-9.8,3.51-14.11A24.51,24.51,0,0,1,52.8,7.47a20.94,20.94,0,0,0,1.75-1.21,7.65,7.65,0,0,0,1-.58C57,4.63,58,3.4,59.69,2.76a19,19,0,0,1,6.43-1.1,2.67,2.67,0,0,0,1.32-.39l.19-.11c.06,0,.13-.06.19-.11h.05L68.11,1a27.63,27.63,0,0,1,5.34-1c1.77,2.41,4.39,3.34,7.16,4.16a21,21,0,0,1,10.75,6.6C95,15.22,95.6,20.48,95.05,26c-.18,1.84-.75,3.63-1.1,5.45A3.13,3.13,0,0,0,93.86,33c2,5.13-.65,9.34-2.76,13.57-1.48,3-3.41,5.7-5.13,8.55a2.63,2.63,0,0,0-.43,1.07C85.06,63,80.76,68,77.35,73.43c-.44.7-.91,1.39-1.61,2.45,5.92-.71,7.93,3.89,11.25,7.49,2-5.77,2.07-11.49,3-17.17a4.29,4.29,0,0,1,1,.18c5.08,2.11,10.08,4.43,15.24,6.32,4.7,1.73,8.5,4.3,11.1,8.69,3,5.06,6.41,9.92,7.28,16,3.72.8,7.87-1,11.2,1.9l-.07-.07C138.45,100.46,140.33,103.63,139.86,106.38Zm-4-7.13a51.11,51.11,0,0,0-7.29-1q-59.13-.1-118.26,0H7.75A7.81,7.81,0,0,0,.52,106.6a7.9,7.9,0,0,0,.13,1Q5.26,133.74,9.75,160c.38,2.21.67,4.44,1,6.66.66,4.22,4.27,6.89,9.41,6.89h100.3c5-.21,7.77-2.79,8.62-7.72q4.53-26.36,9.15-52.68c.87-5,2.46-10-2.36-13.9Z"/></g><g class="cls-4"><rect class="cls-1" x="279.86" y="173.96" width="139.93" height="173.96"/><path class="cls-5" d="M419.72,280.34c-2.18,12.76-4.44,25.51-6.63,38.26-1.23,7.18-2.45,14.36-3.57,21.56-.72,4.61-3.53,7.34-8.23,7.69-.85.06-1.71.06-2.56.06H301c-.85,0-1.71,0-2.56-.06-4.75-.33-7.65-3.14-8.43-7.81q-4.31-25.69-8.74-51.35c-.34-2-.67-4-1.08-5.95-1.33-6.4,2.31-11,8.9-11.25,1.93-.06,3.87,0,5.9,0,1.13-7.26,5.18-13,9.15-18.71a12.91,12.91,0,0,1,5.16-4.21c6.78-3,13.72-5.64,20.73-8.47.67,5.69,1,11.58,2.88,17.68,1.82-2.15,3-4.13,4.74-5.45s3.75-1.8,5.94-2.79c-1-1.54-2.34-3.39-3.46-5.36-1.68-3-3.21-6-4.8-9a1.83,1.83,0,0,1-.3-.63c-.59-6.15-4.55-10.91-6.75-16.4a38.85,38.85,0,0,1-1.88-6.23c-.26-1.18-.51-2.82.09-3.64a6.26,6.26,0,0,0,.34-.55c2-1.66.51-6.54-.06-9.63-.26-5,.11-9.8,3.51-14.11a24.51,24.51,0,0,1,2.43-2.56,20.94,20.94,0,0,0,1.75-1.21,7.65,7.65,0,0,0,1-.58c1.45-1,2.45-2.28,4.14-2.92a19,19,0,0,1,6.43-1.1,2.67,2.67,0,0,0,1.32-.39l.19-.11c.06,0,.13-.06.19-.11h.05l.24,0a27.63,27.63,0,0,1,5.34-1c1.77,2.41,4.39,3.34,7.16,4.16a21,21,0,0,1,10.75,6.6c3.64,4.46,4.24,9.72,3.69,15.24-.18,1.84-.75,3.63-1.1,5.45a3.13,3.13,0,0,0-.09,1.55c2,5.13-.65,9.34-2.76,13.57-1.48,3-3.41,5.7-5.13,8.55a2.63,2.63,0,0,0-.43,1.07c-.48,6.81-4.78,11.81-8.19,17.24-.44.7-.91,1.39-1.61,2.45,5.92-.71,7.93,3.89,11.25,7.49,2-5.77,2.07-11.49,3-17.17a4.29,4.29,0,0,1,1,.18c5.08,2.11,10.08,4.43,15.24,6.32,4.7,1.73,8.5,4.3,11.1,8.69,3,5.06,6.41,9.92,7.28,16,3.72.8,7.87-1,11.2,1.9l-.07-.07C418.31,274.42,420.19,277.59,419.72,280.34Zm-4-7.13a51.11,51.11,0,0,0-7.29-1q-59.13-.1-118.26,0h-2.56a7.81,7.81,0,0,0-7.23,8.35,7.9,7.9,0,0,0,.13,1q4.61,26.18,9.1,52.44c.38,2.21.67,4.44,1,6.66.66,4.22,4.27,6.89,9.41,6.89h100.3c5-.21,7.77-2.79,8.62-7.72q4.53-26.35,9.15-52.68c.87-4.95,2.46-10-2.36-13.9Z"/></g><g class="cls-6"><rect class="cls-1" x="279.86" width="139.93" height="173.96"/><path class="cls-5" d="M419.72,106.38c-2.18,12.76-4.44,25.51-6.63,38.26-1.23,7.18-2.45,14.36-3.57,21.56-.72,4.61-3.53,7.34-8.23,7.69-.85.06-1.71.06-2.56.06H301c-.85,0-1.71,0-2.56-.06-4.75-.33-7.65-3.14-8.43-7.81q-4.31-25.7-8.74-51.35c-.34-2-.67-4-1.08-6-1.33-6.4,2.31-11,8.9-11.25,1.93-.06,3.87,0,5.9,0,1.13-7.26,5.18-13,9.15-18.71a12.91,12.91,0,0,1,5.16-4.21C316,71.61,323,69,330,66.14c.67,5.69,1,11.58,2.88,17.68,1.82-2.15,3-4.13,4.74-5.45s3.75-1.8,5.94-2.79c-1-1.54-2.34-3.39-3.46-5.36-1.68-3-3.21-6-4.8-9a1.83,1.83,0,0,1-.3-.63c-.59-6.15-4.55-10.91-6.75-16.4A38.85,38.85,0,0,1,326.35,38c-.26-1.18-.51-2.82.09-3.64a6.26,6.26,0,0,0,.34-.55c2-1.66.51-6.54-.06-9.63-.26-5,.11-9.8,3.51-14.11a24.51,24.51,0,0,1,2.43-2.56,20.94,20.94,0,0,0,1.75-1.21,7.65,7.65,0,0,0,1-.58c1.45-1,2.45-2.28,4.14-2.92A19,19,0,0,1,346,1.66a2.67,2.67,0,0,0,1.32-.39l.19-.11c.06,0,.13-.06.19-.11h.05L348,1a27.63,27.63,0,0,1,5.34-1c1.77,2.41,4.39,3.34,7.16,4.16a21,21,0,0,1,10.75,6.6c3.64,4.46,4.24,9.72,3.69,15.24-.18,1.84-.75,3.63-1.1,5.45a3.13,3.13,0,0,0-.09,1.55c2,5.13-.65,9.34-2.76,13.57-1.48,3-3.41,5.7-5.13,8.55a2.63,2.63,0,0,0-.43,1.07c-.48,6.81-4.78,11.81-8.19,17.24-.44.7-.91,1.39-1.61,2.45,5.92-.71,7.93,3.89,11.25,7.49,2-5.77,2.07-11.49,3-17.17a4.29,4.29,0,0,1,1,.18c5.08,2.11,10.08,4.43,15.24,6.32,4.7,1.73,8.5,4.3,11.1,8.69,3,5.06,6.41,9.92,7.28,16,3.72.8,7.87-1,11.2,1.9l-.07-.07C418.31,100.46,420.19,103.63,419.72,106.38Zm-4-7.13a51.11,51.11,0,0,0-7.29-1q-59.13-.1-118.26,0h-2.56a7.81,7.81,0,0,0-7.23,8.35,7.9,7.9,0,0,0,.13,1q4.61,26.18,9.1,52.44c.38,2.21.67,4.44,1,6.66.66,4.22,4.27,6.89,9.41,6.89h100.3c5-.21,7.77-2.79,8.62-7.72q4.53-26.36,9.15-52.68c.87-5,2.46-10-2.36-13.9Z"/></g><g class="cls-7"><rect class="cls-1" x="139.93" y="173.96" width="139.93" height="173.96"/><path class="cls-5" d="M279.79,280.34c-2.18,12.76-4.44,25.51-6.63,38.26-1.23,7.18-2.45,14.36-3.57,21.56-.72,4.61-3.53,7.34-8.23,7.69-.85.06-1.71.06-2.56.06H161c-.85,0-1.71,0-2.56-.06-4.75-.33-7.65-3.14-8.43-7.81q-4.31-25.69-8.74-51.35c-.34-2-.67-4-1.08-5.95-1.33-6.4,2.31-11,8.9-11.25,1.93-.06,3.87,0,5.9,0,1.13-7.26,5.18-13,9.15-18.71a12.91,12.91,0,0,1,5.16-4.21c6.78-3,13.72-5.64,20.73-8.47.67,5.69,1,11.58,2.88,17.68,1.82-2.15,3-4.13,4.74-5.45s3.75-1.8,5.94-2.79c-1-1.54-2.34-3.39-3.46-5.36-1.68-3-3.21-6-4.8-9a1.83,1.83,0,0,1-.3-.63c-.59-6.15-4.55-10.91-6.75-16.4a38.85,38.85,0,0,1-1.88-6.23c-.26-1.18-.51-2.82.09-3.64a6.26,6.26,0,0,0,.34-.55c2-1.66.51-6.54-.06-9.63-.26-5,.11-9.8,3.51-14.11a24.51,24.51,0,0,1,2.43-2.56,20.94,20.94,0,0,0,1.75-1.21,7.65,7.65,0,0,0,1-.58c1.45-1,2.45-2.28,4.14-2.92a19,19,0,0,1,6.43-1.1,2.67,2.67,0,0,0,1.32-.39l.19-.11c.06,0,.13-.06.19-.11h.05l.24,0a27.63,27.63,0,0,1,5.34-1c1.77,2.41,4.39,3.34,7.16,4.16a21,21,0,0,1,10.75,6.6c3.64,4.46,4.24,9.72,3.69,15.24-.18,1.84-.75,3.63-1.1,5.45a3.13,3.13,0,0,0-.09,1.55c2,5.13-.65,9.34-2.76,13.57-1.48,3-3.41,5.7-5.13,8.55a2.63,2.63,0,0,0-.43,1.07c-.48,6.81-4.78,11.81-8.19,17.24-.44.7-.91,1.39-1.61,2.45,5.92-.71,7.93,3.89,11.25,7.49,2-5.77,2.07-11.49,3-17.17a4.29,4.29,0,0,1,1,.18c5.08,2.11,10.08,4.43,15.24,6.32,4.7,1.73,8.5,4.3,11.1,8.69,3,5.06,6.41,9.92,7.28,16,3.72.8,7.87-1,11.2,1.9l-.07-.07C278.38,274.42,280.26,277.59,279.79,280.34Zm-4-7.13a51.11,51.11,0,0,0-7.29-1q-59.13-.1-118.26,0h-2.56a7.81,7.81,0,0,0-7.23,8.35,7.9,7.9,0,0,0,.13,1q4.6,26.18,9.1,52.44c.38,2.21.67,4.44,1,6.66.66,4.22,4.27,6.89,9.41,6.89h100.3c5-.21,7.77-2.79,8.62-7.72q4.53-26.35,9.15-52.68c.87-4.95,2.46-10-2.36-13.9Z"/></g><g class="cls-8"><rect class="cls-1" x="139.93" width="139.93" height="173.96"/><path class="cls-5" d="M279.79,106.38c-2.18,12.76-4.44,25.51-6.63,38.26-1.23,7.18-2.45,14.36-3.57,21.56-.72,4.61-3.53,7.34-8.23,7.69-.85.06-1.71.06-2.56.06H161c-.85,0-1.71,0-2.56-.06-4.75-.33-7.65-3.14-8.43-7.81q-4.31-25.7-8.74-51.35c-.34-2-.67-4-1.08-6-1.33-6.4,2.31-11,8.9-11.25,1.93-.06,3.87,0,5.9,0,1.13-7.26,5.18-13,9.15-18.71a12.91,12.91,0,0,1,5.16-4.21c6.78-3,13.72-5.64,20.73-8.47.67,5.69,1,11.58,2.88,17.68,1.82-2.15,3-4.13,4.74-5.45s3.75-1.8,5.94-2.79c-1-1.54-2.34-3.39-3.46-5.36-1.68-3-3.21-6-4.8-9a1.83,1.83,0,0,1-.3-.63c-.59-6.15-4.55-10.91-6.75-16.4A38.85,38.85,0,0,1,186.42,38c-.26-1.18-.51-2.82.09-3.64a6.26,6.26,0,0,0,.34-.55c2-1.66.51-6.54-.06-9.63-.26-5,.11-9.8,3.51-14.11a24.51,24.51,0,0,1,2.43-2.56,20.94,20.94,0,0,0,1.75-1.21,7.65,7.65,0,0,0,1-.58c1.45-1,2.45-2.28,4.14-2.92a19,19,0,0,1,6.43-1.1,2.67,2.67,0,0,0,1.32-.39l.19-.11c.06,0,.13-.06.19-.11h.05L208,1a27.63,27.63,0,0,1,5.34-1c1.77,2.41,4.39,3.34,7.16,4.16a21,21,0,0,1,10.75,6.6c3.64,4.46,4.24,9.72,3.69,15.24-.18,1.84-.75,3.63-1.1,5.45a3.13,3.13,0,0,0-.09,1.55c2,5.13-.65,9.34-2.76,13.57-1.48,3-3.41,5.7-5.13,8.55a2.63,2.63,0,0,0-.43,1.07C225,63,220.69,68,217.28,73.43c-.44.7-.91,1.39-1.61,2.45,5.92-.71,7.93,3.89,11.25,7.49,2-5.77,2.07-11.49,3-17.17a4.29,4.29,0,0,1,1,.18C236,68.49,241,70.81,246.17,72.7c4.7,1.73,8.5,4.3,11.1,8.69,3,5.06,6.41,9.92,7.28,16,3.72.8,7.87-1,11.2,1.9l-.07-.07C278.38,100.46,280.26,103.63,279.79,106.38Zm-4-7.13a51.11,51.11,0,0,0-7.29-1q-59.13-.1-118.26,0h-2.56a7.81,7.81,0,0,0-7.23,8.35,7.9,7.9,0,0,0,.13,1q4.6,26.18,9.1,52.44c.38,2.21.67,4.44,1,6.66.66,4.22,4.27,6.89,9.41,6.89h100.3c5-.21,7.77-2.79,8.62-7.72q4.53-26.36,9.15-52.68c.87-5,2.46-10-2.36-13.9Z"/></g><g class="cls-9"><rect class="cls-1" y="173.96" width="139.93" height="173.96"/><path class="cls-5" d="M139.86,280.34c-2.18,12.76-4.44,25.51-6.63,38.26-1.23,7.18-2.45,14.36-3.57,21.56-.72,4.61-3.53,7.34-8.23,7.69-.85.06-1.71.06-2.56.06H21.09c-.85,0-1.71,0-2.56-.06-4.75-.33-7.65-3.14-8.43-7.81q-4.3-25.69-8.74-51.35c-.34-2-.67-4-1.08-5.95-1.33-6.4,2.31-11,8.9-11.25,1.93-.06,3.87,0,5.9,0,1.13-7.26,5.18-13,9.15-18.71a12.91,12.91,0,0,1,5.16-4.21c6.78-3,13.72-5.64,20.73-8.47.67,5.69,1,11.58,2.88,17.68,1.82-2.15,3-4.13,4.74-5.45s3.75-1.8,5.94-2.79c-1-1.54-2.34-3.39-3.46-5.36-1.68-3-3.21-6-4.8-9a1.83,1.83,0,0,1-.3-.63c-.59-6.15-4.55-10.91-6.75-16.4a38.85,38.85,0,0,1-1.88-6.23c-.26-1.18-.51-2.82.09-3.64a6.26,6.26,0,0,0,.34-.55c2-1.66.51-6.54-.06-9.63-.26-5,.11-9.8,3.51-14.11a24.51,24.51,0,0,1,2.43-2.56,20.94,20.94,0,0,0,1.75-1.21,7.65,7.65,0,0,0,1-.58c1.45-1,2.45-2.28,4.14-2.92a19,19,0,0,1,6.43-1.1,2.67,2.67,0,0,0,1.32-.39l.19-.11c.06,0,.13-.06.19-.11h.05l.24,0a27.63,27.63,0,0,1,5.34-1c1.77,2.41,4.39,3.34,7.16,4.16a21,21,0,0,1,10.75,6.6c3.64,4.46,4.24,9.72,3.69,15.24-.18,1.84-.75,3.63-1.1,5.45a3.13,3.13,0,0,0-.09,1.55c2,5.13-.65,9.34-2.76,13.57-1.48,3-3.41,5.7-5.13,8.55a2.63,2.63,0,0,0-.43,1.07c-.48,6.81-4.78,11.81-8.19,17.24-.44.7-.91,1.39-1.61,2.45,5.92-.71,7.93,3.89,11.25,7.49,2-5.77,2.07-11.49,3-17.17a4.29,4.29,0,0,1,1,.18c5.08,2.11,10.08,4.43,15.24,6.32,4.7,1.73,8.5,4.3,11.1,8.69,3,5.06,6.41,9.92,7.28,16,3.72.8,7.87-1,11.2,1.9l-.07-.07C138.45,274.42,140.33,277.59,139.86,280.34Zm-4-7.13a51.11,51.11,0,0,0-7.29-1q-59.13-.1-118.26,0H7.75a7.81,7.81,0,0,0-7.23,8.35,7.9,7.9,0,0,0,.13,1Q5.26,307.7,9.75,334c.38,2.21.67,4.44,1,6.66.66,4.22,4.27,6.89,9.41,6.89h100.3c5-.21,7.77-2.79,8.62-7.72q4.53-26.35,9.15-52.68c.87-4.95,2.46-10-2.36-13.9Z"/></g><g class="cls-10"><rect class="cls-1" width="139.93" height="173.96"/><path class="cls-5" d="M139.86,106.38c-2.18,12.76-4.44,25.51-6.63,38.26-1.23,7.18-2.45,14.36-3.57,21.56-.72,4.61-3.53,7.34-8.23,7.69-.85.06-1.71.06-2.56.06H21.09c-.85,0-1.71,0-2.56-.06-4.75-.33-7.65-3.14-8.43-7.81q-4.3-25.7-8.74-51.35c-.34-2-.67-4-1.08-6-1.33-6.4,2.31-11,8.9-11.25,1.93-.06,3.87,0,5.9,0,1.13-7.26,5.18-13,9.15-18.71a12.91,12.91,0,0,1,5.16-4.21c6.78-3,13.72-5.64,20.73-8.47.67,5.69,1,11.58,2.88,17.68,1.82-2.15,3-4.13,4.74-5.45s3.75-1.8,5.94-2.79c-1-1.54-2.34-3.39-3.46-5.36-1.68-3-3.21-6-4.8-9a1.83,1.83,0,0,1-.3-.63c-.59-6.15-4.55-10.91-6.75-16.4A38.85,38.85,0,0,1,46.49,38c-.26-1.18-.51-2.82.09-3.64a6.26,6.26,0,0,0,.34-.55c2-1.66.51-6.54-.06-9.63-.26-5,.11-9.8,3.51-14.11A24.51,24.51,0,0,1,52.8,7.47a20.94,20.94,0,0,0,1.75-1.21,7.65,7.65,0,0,0,1-.58C57,4.63,58,3.4,59.69,2.76a19,19,0,0,1,6.43-1.1,2.67,2.67,0,0,0,1.32-.39l.19-.11c.06,0,.13-.06.19-.11h.05L68.11,1a27.63,27.63,0,0,1,5.34-1c1.77,2.41,4.39,3.34,7.16,4.16a21,21,0,0,1,10.75,6.6C95,15.22,95.6,20.48,95.05,26c-.18,1.84-.75,3.63-1.1,5.45A3.13,3.13,0,0,0,93.86,33c2,5.13-.65,9.34-2.76,13.57-1.48,3-3.41,5.7-5.13,8.55a2.63,2.63,0,0,0-.43,1.07C85.06,63,80.76,68,77.35,73.43c-.44.7-.91,1.39-1.61,2.45,5.92-.71,7.93,3.89,11.25,7.49,2-5.77,2.07-11.49,3-17.17a4.29,4.29,0,0,1,1,.18c5.08,2.11,10.08,4.43,15.24,6.32,4.7,1.73,8.5,4.3,11.1,8.69,3,5.06,6.41,9.92,7.28,16,3.72.8,7.87-1,11.2,1.9l-.07-.07C138.45,100.46,140.33,103.63,139.86,106.38Zm-4-7.13a51.11,51.11,0,0,0-7.29-1q-59.13-.1-118.26,0H7.75A7.81,7.81,0,0,0,.52,106.6a7.9,7.9,0,0,0,.13,1Q5.26,133.74,9.75,160c.38,2.21.67,4.44,1,6.66.66,4.22,4.27,6.89,9.41,6.89h100.3c5-.21,7.77-2.79,8.62-7.72q4.53-26.36,9.15-52.68c.87-5,2.46-10-2.36-13.9Z"/></g><g class="cls-8"><rect class="cls-1" x="139.93" width="139.93" height="173.96"/><path class="cls-5" d="M279.79,106.38c-2.18,12.76-4.44,25.51-6.63,38.26-1.23,7.18-2.45,14.36-3.57,21.56-.72,4.61-3.53,7.34-8.23,7.69-.85.06-1.71.06-2.56.06H161c-.85,0-1.71,0-2.56-.06-4.75-.33-7.65-3.14-8.43-7.81q-4.31-25.7-8.74-51.35c-.34-2-.67-4-1.08-6-1.33-6.4,2.31-11,8.9-11.25,1.93-.06,3.87,0,5.9,0,1.13-7.26,5.18-13,9.15-18.71a12.91,12.91,0,0,1,5.16-4.21c6.78-3,13.72-5.64,20.73-8.47.67,5.69,1,11.58,2.88,17.68,1.82-2.15,3-4.13,4.74-5.45s3.75-1.8,5.94-2.79c-1-1.54-2.34-3.39-3.46-5.36-1.68-3-3.21-6-4.8-9a1.83,1.83,0,0,1-.3-.63c-.59-6.15-4.55-10.91-6.75-16.4A38.85,38.85,0,0,1,186.42,38c-.26-1.18-.51-2.82.09-3.64a6.26,6.26,0,0,0,.34-.55c2-1.66.51-6.54-.06-9.63-.26-5,.11-9.8,3.51-14.11a24.51,24.51,0,0,1,2.43-2.56,20.94,20.94,0,0,0,1.75-1.21,7.65,7.65,0,0,0,1-.58c1.45-1,2.45-2.28,4.14-2.92a19,19,0,0,1,6.43-1.1,2.67,2.67,0,0,0,1.32-.39l.19-.11c.06,0,.13-.06.19-.11h.05L208,1a27.63,27.63,0,0,1,5.34-1c1.77,2.41,4.39,3.34,7.16,4.16a21,21,0,0,1,10.75,6.6c3.64,4.46,4.24,9.72,3.69,15.24-.18,1.84-.75,3.63-1.1,5.45a3.13,3.13,0,0,0-.09,1.55c2,5.13-.65,9.34-2.76,13.57-1.48,3-3.41,5.7-5.13,8.55a2.63,2.63,0,0,0-.43,1.07C225,63,220.69,68,217.28,73.43c-.44.7-.91,1.39-1.61,2.45,5.92-.71,7.93,3.89,11.25,7.49,2-5.77,2.07-11.49,3-17.17a4.29,4.29,0,0,1,1,.18C236,68.49,241,70.81,246.17,72.7c4.7,1.73,8.5,4.3,11.1,8.69,3,5.06,6.41,9.92,7.28,16,3.72.8,7.87-1,11.2,1.9l-.07-.07C278.38,100.46,280.26,103.63,279.79,106.38Zm-4-7.13a51.11,51.11,0,0,0-7.29-1q-59.13-.1-118.26,0h-2.56a7.81,7.81,0,0,0-7.23,8.35,7.9,7.9,0,0,0,.13,1q4.6,26.18,9.1,52.44c.38,2.21.67,4.44,1,6.66.66,4.22,4.27,6.89,9.41,6.89h100.3c5-.21,7.77-2.79,8.62-7.72q4.53-26.36,9.15-52.68c.87-5,2.46-10-2.36-13.9Z"/></g></g><path class="cls-11" d="M217.24,216.9H152.53a6.14,6.14,0,0,1-2.63,0c-.57,0-1.31-1.15-1.23-1.72a2.71,2.71,0,0,1,1.4-1.81,6.47,6.47,0,0,1,2.63,0H281.86c1.56,0,4.19-.91,4.19,1.89s-2.55,2.14-4.27,2.14H217.24Z"/><path class="cls-12" d="M293.29,125.07h-.49a50.66,50.66,0,0,0-8.23-1.07H146a9,9,0,0,0-8.38,9.51,9.3,9.3,0,0,0,.16,1.18q5.25,30.09,10.44,60.18c.41,2.55.74,5.1,1.15,7.64a9.87,9.87,0,0,0,10.77,8.23H275.2a9.54,9.54,0,0,0,9.87-8.88q5.18-30.26,10.52-60.43C296.66,134.85,298.3,129.18,293.29,125.07Zm-76.13,44.15a3.62,3.62,0,0,1-3.78-3.45.28.28,0,0,0,0-.09,3.78,3.78,0,0,1,3.78-3.78h.17a3.61,3.61,0,0,1,3.78,3.45v.17a3.52,3.52,0,0,1-3.75,3.3h-.19Z"/><path class="cls-2" d="M274.79,211.48H160.18a11.6,11.6,0,0,1-12.5-9.38l-.41-3a29.3,29.3,0,0,0-.65-4.52l-1.07-6.41c-3.05-17.6-6.17-35.85-9.29-53.77a11,11,0,0,1,2.05-8.64,10.6,10.6,0,0,1,7.65-4H284.57a32.92,32.92,0,0,1,6,.74h3.12A14.54,14.54,0,0,1,297,138v1.73l-1.15,10q-4.53,25.74-9,51.47a11.19,11.19,0,0,1-11.51,10.28ZM274.3,208h1a8.21,8.21,0,0,0,8.22-7.4q4.44-25.73,9-51.46l1.56-9v-1.72c.9-4.77,1.64-8.8-2-12.17h-2.31a30.87,30.87,0,0,0-5.42-.66H146.12a7.15,7.15,0,0,0-5.18,2.72,7.5,7.5,0,0,0-1.4,5.92c3.13,17.92,6.25,36.17,9.29,53.76l1.07,6.42a30.58,30.58,0,0,0,.74,4.6l.5,3a8.22,8.22,0,0,0,9.12,6.5h114Zm-57-37.41h0a5.34,5.34,0,0,1-5.51-5.17v-.09a5.41,5.41,0,0,1,1.65-3.86,5.72,5.72,0,0,1,4-1.65h0a5.36,5.36,0,1,1-.25,10.69Zm0-7.31a2.25,2.25,0,0,0-1.56.57,2,2,0,0,0-.58,1.48,1.9,1.9,0,0,0,2,1.83l.18,0h0a2.24,2.24,0,0,0,1.65-.49,2.09,2.09,0,0,0,.49-1.48,1.89,1.89,0,0,0-1.89-1.9h-.25Z"/><path class="cls-12" d="M217.16,168.81a3.62,3.62,0,0,1-3.78-3.45.28.28,0,0,0,0-.09,3.78,3.78,0,0,1,3.78-3.78h.17a3.61,3.61,0,0,1,3.78,3.45v.17a3.53,3.53,0,0,1-3.34,3.72A4,4,0,0,1,217.16,168.81Z"/><path class="cls-2" d="M291.56,77.22a31.2,31.2,0,1,1,.5,0Zm0-58.79a21.79,21.79,0,1,0,.67-.24h-.67Z"/><path class="cls-12" d="M291.56,18.19a28,28,0,1,1-27.88,28c0-.22,0-.44,0-.66A28,28,0,0,1,291.56,18.19ZM288.68,36.6h0v9.54a1.38,1.38,0,0,0,.42,1l2.79,2.79,8.22,8.22a1.23,1.23,0,0,0,1.15,0A1.63,1.63,0,0,0,302.5,57a1.35,1.35,0,0,0-.41-1.4l-10-10a.8.8,0,0,1,0-.57V27.15a1.51,1.51,0,0,0-.58-1.24,1.42,1.42,0,0,0-1.56,0,1.39,1.39,0,0,0-.82,1.4,92.37,92.37,0,0,0-.5,9.54Z"/><path class="cls-11" d="M288.6,36.85V27.31a1.42,1.42,0,0,1,.82-1.4,1.44,1.44,0,0,1,1.57,0,1.5,1.5,0,0,1,.57,1.24V45a.92.92,0,0,0,0,.57l10,10A1.31,1.31,0,0,1,302,57a1.62,1.62,0,0,1-1.23,1.15,1.23,1.23,0,0,1-1.15,0l-8.22-8.22-2.8-2.79a1.33,1.33,0,0,1-.41-1V36.6Z"/></g></g></svg>