<svg xmlns="http://www.w3.org/2000/svg" width="65.958" height="65.958" viewBox="0 0 65.958 65.958">
  <g id="Group_31" data-name="Group 31" transform="translate(2 2)">
    <path id="Path_13" data-name="Path 13" d="M32.979,2A30.979,30.979,0,1,0,63.958,32.979,30.979,30.979,0,0,0,32.979,2Z" transform="translate(-2 -2)" fill="#fff" stroke="#fff" stroke-width="4"/>
    <path id="Path_13-2" data-name="Path 13" d="M32.979,2A30.979,30.979,0,1,0,63.958,32.979,30.979,30.979,0,0,0,32.979,2ZM46.3,25.575,32.143,44.163a3.107,3.107,0,0,1-4.895.031l-7.559-9.634a3.1,3.1,0,1,1,4.895-3.81l5.05,6.444L41.343,21.7A3.117,3.117,0,0,1,46.3,25.482Z" transform="translate(-1.538 -2)" fill="#11b570"/>
  </g>
</svg>
